<svg width="82" height="78" viewBox="0 0 82 78" fill="none" xmlns="http://www.w3.org/2000/svg">
<path d="M6.45262 58.8055V63.0908H3.19407V58.8055H0V70.5868H3.19407V65.6906H6.45262V70.5868H9.64669V58.8055H6.45262ZM17.7172 70.8279C21.2169 70.8279 23.7539 68.0514 23.7539 64.6868C23.7539 61.2994 21.2169 58.5665 17.7172 58.5665C14.1966 58.5665 11.6576 61.2994 11.6576 64.6868C11.6576 68.0514 14.1966 70.8279 17.7172 70.8279ZM17.7172 67.9205C16.5152 67.9205 15.2675 67.2201 15.2675 64.6847C15.2675 62.1265 16.5152 61.4719 17.7172 61.4719C18.8754 61.4719 20.146 62.1265 20.146 64.6847C20.1439 67.2201 18.8754 67.9205 17.7172 67.9205ZM32.3504 61.9748L32.7226 59.2419C31.9574 58.9365 30.6452 58.5645 29.2894 58.5645C27.4948 58.5645 25.091 59.2419 25.091 62.0392C25.091 64.1818 26.5341 64.9466 29.1147 66.0605C29.9237 66.3889 30.5371 66.6507 30.5371 67.2638C30.5371 67.8311 29.9466 67.9849 29.3123 67.9849C28.4597 67.9849 27.2994 67.7231 25.5713 67.0892L25.0681 69.9301C26.9708 70.7614 28.4805 70.8258 29.1792 70.8258C32.2631 70.8258 33.7499 69.5145 33.7499 67.2202C33.7499 65.144 32.548 64.159 30.0089 63.2196C28.8486 62.7832 28.0189 62.5629 28.0189 62.0392C28.0189 61.5363 28.7404 61.2744 29.5286 61.2744C30.4914 61.2744 31.5186 61.6464 32.3504 61.9748ZM39.8074 58.8055H35.3885V70.5868H38.5597V66.9583C42.0595 66.9583 44.6838 66.2808 44.6838 62.6086C44.6859 59.8986 43.0015 58.8055 39.8074 58.8055ZM38.5618 64.5102V61.0562H39.5683C40.3127 61.0562 41.5375 61.0562 41.5375 62.7396C41.5355 64.5102 40.8139 64.5102 38.5618 64.5102ZM49.8908 58.8055H46.6967V70.5868H49.8908V58.8055ZM60.6958 58.8055H51.2695V61.4074H54.397V70.5868H57.5911V61.4074H60.6978V58.8055H60.6958ZM68.8535 70.5868H72.7026L68.656 58.8055H64.8277L60.9349 70.5868H64.784L65.3954 67.9641H68.2172L68.8535 70.5868ZM65.9901 65.3622L66.6888 62.2366H66.8635L67.6079 65.3622H65.9901ZM77.1881 58.8055H74.0169V70.5868H82V67.9849H77.1881V58.8055Z" fill="#000D44"/>
<path d="M46.1291 76.1611C46.1291 76.0094 46.1083 75.8764 46.0417 75.7683C45.998 75.6581 45.9107 75.5709 45.8234 75.5064C45.7131 75.4399 45.605 75.3755 45.4948 75.3319C45.3846 75.2882 45.2536 75.2446 45.0789 75.1781C44.925 75.1344 44.794 75.0908 44.7067 75.0471C44.5985 75.0035 44.5091 74.9599 44.4447 74.9162C44.3573 74.8497 44.2908 74.7853 44.2471 74.698C44.2035 74.6315 44.1598 74.5234 44.1598 74.4133C44.1598 74.3052 44.2035 74.2159 44.2471 74.1514C44.2908 74.0642 44.3573 73.9977 44.4447 73.954C44.5112 73.9104 44.5985 73.8667 44.7067 73.846C44.794 73.8252 44.8814 73.8023 44.9687 73.8023C45.0789 73.8023 45.1662 73.8252 45.2536 73.846C45.3409 73.846 45.4283 73.8896 45.4948 73.9332C45.5614 73.954 45.6258 74.0205 45.6695 74.087C45.7131 74.1535 45.736 74.2408 45.736 74.3489H46.0646C46.0438 74.1951 46.0001 74.0641 45.9336 73.9561C45.867 73.848 45.7589 73.7587 45.6716 73.6942C45.5634 73.6298 45.4304 73.5862 45.3222 73.5633C45.1912 73.5425 45.0602 73.5197 44.95 73.5197C44.7961 73.5197 44.6651 73.5425 44.5341 73.5841C44.4031 73.6277 44.2929 73.6922 44.1847 73.7587C44.0766 73.8459 43.9872 73.9561 43.9227 74.0641C43.8562 74.1743 43.8354 74.3052 43.8354 74.459C43.8354 74.6128 43.8791 74.7645 43.9456 74.8746C44.0101 74.9848 44.1203 75.0929 44.2305 75.1594C44.3386 75.2466 44.4717 75.3132 44.5798 75.3568C44.7108 75.4004 44.8647 75.4669 45.0602 75.5106C45.1475 75.5542 45.2141 75.5771 45.2577 75.5771C45.4324 75.6436 45.5634 75.708 45.6508 75.7953C45.761 75.9034 45.8047 76.0364 45.8047 76.1881C45.8047 76.2962 45.7818 76.3855 45.7173 76.4728C45.6736 76.5601 45.6071 76.6266 45.5426 76.691C45.4553 76.7346 45.368 76.7783 45.2577 76.8011C45.1704 76.8448 45.0602 76.8448 44.9521 76.8448C44.8439 76.8448 44.7337 76.8448 44.6235 76.8219C44.5154 76.7991 44.426 76.7575 44.3615 76.7139C44.2742 76.6473 44.2076 76.5829 44.1639 76.4957C44.1203 76.4084 44.0974 76.2982 44.0974 76.1673H43.748C43.748 76.2982 43.7917 76.4291 43.8354 76.5621C43.9019 76.6702 43.9664 76.7804 44.0766 76.8676C44.164 76.9549 44.2742 77.0214 44.4052 77.0651C44.5154 77.1316 44.6464 77.1523 44.7982 77.1523C44.9729 77.1523 45.1475 77.1316 45.3014 77.0879C45.4553 77.0651 45.6071 77.0007 45.7381 76.9342C45.8483 76.8469 45.9565 76.7596 46.023 76.6287C46.1083 76.4894 46.1291 76.3356 46.1291 76.1611ZM47.0919 73.6049H46.807V77.0588H47.0919V73.6049ZM49.6288 75.8556C49.6288 75.9865 49.6059 76.0966 49.5852 76.2047C49.5415 76.3356 49.4978 76.4458 49.4313 76.533C49.3647 76.6432 49.2774 76.7305 49.19 76.7741C49.0798 76.8406 48.9488 76.8843 48.8178 76.8843C48.6868 76.8843 48.5558 76.8406 48.4456 76.7741C48.3583 76.7305 48.2709 76.6432 48.2044 76.533C48.1399 76.4458 48.0734 76.3356 48.0505 76.2047C48.0068 76.0946 48.0068 75.9865 48.0068 75.8556C48.0068 75.7454 48.0068 75.6145 48.0505 75.5064C48.0713 75.3755 48.1378 75.2653 48.2044 75.1781C48.2709 75.07 48.3583 75.0035 48.4456 74.937C48.5558 74.8726 48.6868 74.8497 48.8178 74.8497C48.9488 74.8497 49.0798 74.8726 49.19 74.937C49.2774 75.0035 49.3647 75.0679 49.4313 75.1781C49.4978 75.2653 49.5415 75.3755 49.5852 75.5064C49.6059 75.6145 49.6288 75.7454 49.6288 75.8556ZM48.8199 74.5879C48.6223 74.5879 48.4705 74.6086 48.3166 74.6751C48.1856 74.7624 48.0546 74.8497 47.9673 74.9806C47.88 75.0887 47.8134 75.2217 47.7698 75.3734C47.7261 75.5272 47.6824 75.7018 47.6824 75.8535C47.6824 76.028 47.7261 76.1818 47.7698 76.3335C47.8134 76.4873 47.88 76.6183 47.9673 76.7492C48.0546 76.8573 48.1856 76.9674 48.3166 77.0339C48.4705 77.0983 48.6223 77.142 48.8199 77.142C48.9946 77.142 49.1693 77.0983 49.3003 77.0339C49.4541 76.9674 49.5623 76.8593 49.6725 76.7492C49.7598 76.6183 49.8264 76.4873 49.87 76.3335C49.9137 76.1798 49.9366 76.028 49.9366 75.8535C49.9366 75.6997 49.9137 75.5251 49.87 75.3734C49.8264 75.2217 49.7598 75.0887 49.6725 74.9806C49.5623 74.8497 49.4541 74.7624 49.3003 74.6751C49.1693 74.6086 48.9946 74.5879 48.8199 74.5879ZM52.2094 75.8119C52.2094 75.9221 52.1886 76.053 52.1658 76.1611C52.1429 76.2712 52.0784 76.3793 52.0348 76.4894C51.9682 76.5767 51.8809 76.6432 51.7936 76.7076C51.6833 76.7721 51.5752 76.7949 51.4442 76.7949C51.3132 76.7949 51.203 76.7513 51.1156 76.7076C51.0054 76.6411 50.941 76.5767 50.8744 76.4666C50.8079 76.3793 50.7642 76.2691 50.7205 76.1611C50.6997 76.0509 50.6769 75.92 50.6769 75.8119C50.6769 75.7039 50.6977 75.5937 50.7205 75.4628C50.7642 75.3526 50.8079 75.2446 50.8744 75.1573C50.9181 75.07 51.0054 74.9827 51.0928 74.9391C51.203 74.8747 51.3111 74.8518 51.4213 74.8518C51.5523 74.8518 51.6625 74.8746 51.7707 74.9183C51.858 74.9848 51.9453 75.0492 52.0119 75.1594C52.0784 75.2466 52.1221 75.3568 52.1658 75.4649C52.1886 75.5708 52.2094 75.681 52.2094 75.8119ZM52.2094 75.0035L52.1887 75.0264C52.1013 74.8726 51.9911 74.7645 51.8601 74.698C51.7291 74.6107 51.5752 74.5899 51.4005 74.5899C51.2259 74.5899 51.072 74.6107 50.941 74.6772C50.81 74.7437 50.6997 74.8518 50.6124 74.9619C50.5251 75.0721 50.4814 75.203 50.4377 75.3547C50.3941 75.5085 50.3712 75.6602 50.3712 75.8348C50.3712 76.0093 50.3941 76.1631 50.4377 76.3149C50.4814 76.4686 50.5479 76.5995 50.6124 76.7097C50.6997 76.8178 50.81 76.9071 50.941 76.9715C51.072 77.0152 51.2258 77.0588 51.4213 77.0588C51.5752 77.0588 51.727 77.0152 51.8809 76.9279C52.0119 76.8614 52.1221 76.7534 52.1866 76.5996H52.2074V77.0588C52.2074 77.2563 52.12 77.408 51.989 77.541C51.8351 77.6719 51.6604 77.7156 51.465 77.7156C51.2903 77.7156 51.1364 77.6927 51.0054 77.6283C50.8744 77.5846 50.8079 77.4745 50.7871 77.3436H50.4814C50.4814 77.4537 50.5043 77.5618 50.5687 77.649C50.6124 77.7363 50.6997 77.8028 50.7871 77.8465C50.8744 77.8901 50.9846 77.9338 51.0928 77.9566C51.203 77.9774 51.3111 78.0003 51.4421 78.0003C51.5523 78.0003 51.6605 77.9774 51.727 77.9774C51.8143 77.9566 51.8809 77.9338 51.989 77.8901C52.0992 77.8236 52.1866 77.7592 52.2739 77.6719C52.3404 77.5846 52.3841 77.4974 52.4278 77.4101C52.4486 77.2999 52.4715 77.1918 52.4715 77.0817C52.4923 76.9508 52.4923 76.8198 52.4923 76.6453V75.203C52.4923 75.0929 52.4922 74.9412 52.513 74.7437V74.6565H52.2074V75.0035H52.2094ZM53.3261 76.4021C53.3261 76.2712 53.3469 76.1611 53.4134 76.0966C53.5008 76.0093 53.5881 75.9657 53.6983 75.9221C53.8085 75.8992 53.9167 75.8784 54.0269 75.8576C54.1371 75.8576 54.2681 75.8576 54.4199 75.8576C54.5073 75.8576 54.5509 75.8576 54.5738 75.8576C54.5738 75.8576 54.5738 75.8784 54.5738 75.9221C54.5946 75.9429 54.5946 75.9657 54.5946 75.9886C54.5946 76.0987 54.5738 76.2296 54.5509 76.3169C54.5301 76.425 54.4844 76.5351 54.4407 76.6016C54.3742 76.6889 54.3097 76.7554 54.1995 76.7991C54.1122 76.8427 54.002 76.8864 53.8502 76.8864C53.6963 76.8864 53.5653 76.8427 53.4779 76.7554C53.3698 76.664 53.3261 76.5559 53.3261 76.4021ZM54.5717 75.5937C54.5281 75.5937 54.4407 75.5937 54.2868 75.5937C54.1122 75.5937 53.9583 75.5937 53.8273 75.5937C53.717 75.6166 53.5861 75.6373 53.4987 75.681C53.3448 75.7475 53.2138 75.8348 53.1265 75.9657C53.0391 76.0966 52.9955 76.2276 52.9955 76.3813C52.9955 76.6224 53.0828 76.797 53.2367 76.9279C53.3906 77.0817 53.586 77.1461 53.8065 77.1461C53.9604 77.1461 54.1122 77.1025 54.2661 77.0152C54.4199 76.9487 54.5073 76.8406 54.5717 76.7534V76.7097H54.5925V77.0588H54.8982C54.8982 77.0152 54.8982 76.9944 54.8982 76.9715C54.8753 76.797 54.8753 76.6432 54.8753 76.5123V75.3755C54.8753 75.1136 54.788 74.8954 54.6341 74.7853C54.5031 74.6544 54.2848 74.5879 54.0207 74.5879C53.7586 74.5879 53.5611 74.6315 53.4093 74.7416C53.2346 74.8497 53.1473 75.0264 53.1036 75.2654H53.4093C53.4301 75.1116 53.4966 75.0035 53.6068 74.937C53.6942 74.8726 53.8481 74.8497 53.9999 74.8497C54.1974 74.8497 54.3284 74.8934 54.4158 74.9599C54.5031 75.0471 54.5696 75.1781 54.5696 75.3526V75.5937H54.5717ZM55.9067 75.681C55.9067 75.4399 55.9733 75.2446 56.0814 75.0908C56.2124 74.9162 56.3871 74.8497 56.6075 74.8497C56.8051 74.8497 56.9569 74.8933 57.0671 75.0243C57.1752 75.1344 57.2418 75.309 57.2418 75.5043V77.0568H57.5267V75.548C57.5267 75.4607 57.5267 75.3506 57.5059 75.2633C57.4851 75.1531 57.4393 75.0451 57.3956 74.9349C57.3291 74.8269 57.2418 74.7375 57.1336 74.6731C57.0026 74.6066 56.8716 74.5858 56.6741 74.5858C56.5202 74.5858 56.3684 74.6066 56.2374 74.6938C56.1064 74.7603 55.9962 74.8684 55.9317 75.0222L55.9109 74.9993V74.6502H55.6052V74.7375C55.6281 74.9349 55.6281 75.0866 55.6281 75.1968V77.0547H55.913V75.681H55.9067ZM61.1117 75.2861V75.5916H61.9643V76.7076C61.8104 76.7513 61.6794 76.7949 61.5484 76.8157C61.4381 76.8385 61.3072 76.8386 61.199 76.8386C60.9807 76.8386 60.7831 76.8157 60.6085 76.7284C60.4338 76.6619 60.3028 76.5538 60.1926 76.4229C60.1052 76.292 60.0179 76.1382 59.9742 75.9428C59.9305 75.7683 59.8869 75.5501 59.8869 75.3319C59.8869 75.1344 59.9097 74.9599 59.9513 74.7853C59.995 74.5879 60.0615 74.4362 60.1697 74.2824C60.257 74.1514 60.3672 74.0205 60.519 73.9332C60.6729 73.8459 60.8476 73.8023 61.0431 73.8023C61.2614 73.8023 61.459 73.8688 61.6128 73.9769C61.7875 74.0849 61.8748 74.2387 61.8977 74.4569H62.27C62.2492 74.3031 62.2055 74.1722 62.1389 74.0621C62.0516 73.9311 61.9643 73.8439 61.8541 73.7566C61.7438 73.6901 61.6128 73.6257 61.461 73.582C61.33 73.5384 61.1761 73.5176 61.0451 73.5176C60.8039 73.5176 60.5856 73.582 60.388 73.6714C60.2133 73.7815 60.0595 73.9124 59.9285 74.087C59.7975 74.2616 59.7101 74.459 59.6436 74.6565C59.577 74.8747 59.5562 75.1157 59.5562 75.3339C59.5562 75.5958 59.577 75.8369 59.6436 76.0551C59.708 76.2961 59.8182 76.4707 59.9493 76.6453C60.0595 76.7991 60.2341 76.93 60.4088 77.0173C60.6064 77.1046 60.8018 77.1482 61.0431 77.1482C61.2614 77.1482 61.4797 77.1274 61.6773 77.0838C61.8748 77.0609 62.0703 76.9965 62.2887 76.93V75.2903H61.1117V75.2861ZM64.8735 75.8556C64.8735 75.9865 64.8526 76.0966 64.8298 76.2047C64.7861 76.3356 64.7424 76.4458 64.6759 76.533C64.6114 76.6432 64.522 76.7305 64.4139 76.7741C64.3265 76.8406 64.1955 76.8843 64.0645 76.8843C63.9335 76.8843 63.8025 76.8406 63.6923 76.7741C63.605 76.7305 63.5176 76.6432 63.4511 76.533C63.3845 76.4458 63.3201 76.3356 63.2972 76.2047C63.2535 76.0946 63.2535 75.9865 63.2535 75.8556C63.2535 75.7454 63.2535 75.6145 63.2972 75.5064C63.318 75.3755 63.3845 75.2653 63.4511 75.1781C63.5176 75.07 63.605 75.0035 63.6923 74.937C63.8025 74.8726 63.9335 74.8497 64.0645 74.8497C64.1955 74.8497 64.3265 74.8726 64.4139 74.937C64.5241 75.0035 64.6114 75.0679 64.6759 75.1781C64.7424 75.2653 64.7861 75.3755 64.8298 75.5064C64.8526 75.6145 64.8735 75.7454 64.8735 75.8556ZM64.0645 74.5879C63.867 74.5879 63.7152 74.6086 63.5613 74.6751C63.4303 74.7624 63.2993 74.8497 63.2119 74.9806C63.1246 75.0887 63.0581 75.2217 63.0144 75.3734C62.9479 75.5272 62.927 75.7018 62.927 75.8535C62.927 76.028 62.9479 76.1818 63.0144 76.3335C63.0581 76.4873 63.1246 76.6183 63.2119 76.7492C63.2993 76.8573 63.4303 76.9674 63.5613 77.0339C63.7152 77.0983 63.867 77.142 64.0645 77.142C64.2392 77.142 64.4139 77.0983 64.5449 77.0339C64.6988 76.9674 64.8069 76.8593 64.9171 76.7492C65.0045 76.6183 65.071 76.4873 65.1147 76.3335C65.1583 76.1798 65.1812 76.028 65.1812 75.8535C65.1812 75.6997 65.1604 75.5251 65.1147 75.3734C65.071 75.2196 65.0045 75.0887 64.9171 74.9806C64.8069 74.8497 64.6988 74.7624 64.5449 74.6751C64.4139 74.6086 64.2392 74.5879 64.0645 74.5879ZM67.8263 75.92C67.8263 75.7226 67.8055 75.548 67.7618 75.3963C67.7182 75.2217 67.6516 75.0908 67.5643 74.9599C67.477 74.8497 67.3668 74.7417 67.2357 74.6751C67.0819 74.6086 66.9072 74.5879 66.7117 74.5879C66.537 74.5879 66.3831 74.6086 66.2521 74.6751C66.1211 74.7417 66.0109 74.8497 65.9236 74.9599C65.8134 75.0908 65.7489 75.2217 65.7053 75.3755C65.6616 75.5293 65.6387 75.7038 65.6387 75.8556C65.6387 76.0301 65.6616 76.1839 65.7053 76.3356C65.7489 76.4894 65.8155 76.6203 65.9028 76.7513C65.9901 76.8593 66.1003 76.9695 66.2313 77.036C66.3623 77.1004 66.537 77.1441 66.6909 77.1441C67.2815 77.1441 67.6537 76.8593 67.7847 76.292H67.4998C67.4561 76.4666 67.3688 76.5975 67.2378 76.7076C67.1068 76.8157 66.9529 76.8822 66.8011 76.8822C66.5162 76.8822 66.2979 76.7949 66.1669 76.5975C66.0359 76.4229 65.9693 76.2047 65.9485 75.92H67.8263ZM65.9672 75.6581C65.9901 75.4399 66.0546 75.2425 66.1856 75.0679C66.3166 74.9141 66.4913 74.8497 66.7325 74.8497C66.9737 74.8497 67.1484 74.9162 67.2794 75.0679C67.4104 75.2217 67.4978 75.4171 67.4978 75.6581H65.9672ZM68.3732 75.2425C68.3732 75.3526 68.3961 75.4399 68.4397 75.5272C68.4834 75.5916 68.55 75.6581 68.6144 75.7018C68.681 75.7454 68.7454 75.7891 68.8328 75.8098C68.9201 75.8535 69.0074 75.8743 69.1384 75.8971C69.1613 75.8971 69.1821 75.92 69.2258 75.92C69.336 75.9408 69.4233 75.9636 69.5107 75.9865C69.5772 76.0093 69.6417 76.0301 69.7082 76.0738C69.7748 76.0966 69.8185 76.1403 69.8621 76.2047C69.8829 76.2483 69.9058 76.3148 69.9058 76.4021C69.9058 76.5559 69.8392 76.664 69.7311 76.7513C69.6001 76.8386 69.4462 76.8822 69.2715 76.8822C69.0969 76.8822 68.943 76.8385 68.812 76.772C68.681 76.6848 68.6144 76.5746 68.6144 76.4H68.2859C68.3067 76.531 68.3295 76.6411 68.3732 76.7284C68.4398 76.8386 68.5042 76.903 68.5915 76.9695C68.6789 77.036 68.7662 77.0796 68.8765 77.1004C68.9867 77.1233 69.0948 77.1441 69.205 77.1441C69.336 77.1441 69.467 77.1233 69.5772 77.0796C69.7082 77.0568 69.8184 77.0131 69.9058 76.9487C70.016 76.8822 70.0805 76.7949 70.147 76.6868C70.1907 76.5995 70.2135 76.4894 70.2135 76.3585C70.2135 76.2276 70.1907 76.0966 70.1033 76.0093C70.0389 75.8992 69.9494 75.8348 69.8184 75.7911C69.6874 75.7475 69.5127 75.681 69.2944 75.6374C69.0761 75.5709 68.9222 75.5272 68.8348 75.4836C68.7475 75.4191 68.7038 75.3526 68.7038 75.2425C68.7038 75.1116 68.7475 75.0014 68.8577 74.937C68.9679 74.8726 69.0761 74.8497 69.23 74.8497C69.4046 74.8497 69.5356 74.8726 69.6458 74.937C69.7561 75.0035 69.8205 75.1116 69.8434 75.2425H70.1491C70.1283 75.0014 70.0389 74.8497 69.8871 74.7396C69.7332 74.6294 69.5148 74.5858 69.2757 74.5858C69.1655 74.5858 69.0574 74.5858 68.9471 74.6066C68.8369 74.6273 68.7496 74.6731 68.6623 74.7375C68.5749 74.7811 68.5084 74.8456 68.4647 74.9349C68.3961 75.0243 68.3732 75.1344 68.3732 75.2425ZM72.6153 77.0568V75.3963H74.4973V77.0568H74.8258V73.6049H74.4973V75.1136H72.6153V73.6049H72.2868V77.0588H72.6153V77.0568ZM77.7121 75.92C77.7121 75.7226 77.6913 75.548 77.6456 75.3963C77.6019 75.2217 77.5583 75.0908 77.4709 74.9599C77.3836 74.8497 77.2526 74.7417 77.1216 74.6751C76.9677 74.6086 76.8159 74.5879 76.6183 74.5879C76.4437 74.5879 76.2898 74.6086 76.138 74.6751C76.007 74.7417 75.8968 74.8497 75.8094 74.9599C75.7221 75.0908 75.6555 75.2217 75.6119 75.3755C75.5474 75.5293 75.5245 75.7038 75.5245 75.8556C75.5245 76.0301 75.5453 76.1839 75.5911 76.3356C75.6347 76.4894 75.7013 76.6203 75.7886 76.7513C75.876 76.8593 75.9862 76.9695 76.138 77.036C76.269 77.1004 76.4228 77.1441 76.5975 77.1441C77.1652 77.1441 77.5374 76.8593 77.6913 76.292H77.3857C77.342 76.4666 77.2546 76.5975 77.1444 76.7076C77.0134 76.8157 76.8595 76.8822 76.6849 76.8822C76.4 76.8822 76.2045 76.7949 76.0506 76.5975C75.9196 76.4229 75.8531 76.2047 75.8531 75.92H77.7121ZM75.8531 75.6581C75.876 75.4399 75.9633 75.2425 76.0943 75.0679C76.2253 74.9141 76.4 74.8497 76.6183 74.8497C76.8596 74.8497 77.0342 74.9162 77.1652 75.0679C77.3191 75.2217 77.3836 75.4171 77.4064 75.6581H75.8531ZM78.6313 75.6145C78.6541 75.3734 78.7186 75.1781 78.8288 75.0451C78.939 74.9141 79.0908 74.8476 79.3092 74.8476C79.332 74.8476 79.3757 74.8476 79.4194 74.8476C79.4402 74.8476 79.463 74.8705 79.4859 74.8705V74.5858C79.4651 74.5858 79.4423 74.5858 79.3986 74.5858C79.3321 74.5858 79.2676 74.5858 79.201 74.5858C79.07 74.5858 78.9598 74.6294 78.8725 74.6938C78.7623 74.7811 78.6978 74.8913 78.6541 74.9993H78.6313V74.6502H78.3256C78.3256 74.6939 78.3256 74.7167 78.3256 74.7375C78.3464 74.9349 78.3464 75.0659 78.3464 75.1968V77.0547H78.6313V75.6145ZM82 75.92C82 75.7226 81.9771 75.548 81.9335 75.3963C81.8898 75.2217 81.8233 75.0908 81.7359 74.9599C81.6486 74.8497 81.5384 74.7417 81.3866 74.6751C81.2556 74.6086 81.0809 74.5879 80.8833 74.5879C80.7087 74.5879 80.5548 74.6086 80.4238 74.6751C80.2928 74.7417 80.1826 74.8497 80.0744 74.9599C79.9871 75.0908 79.9205 75.2217 79.8769 75.3755C79.8332 75.5293 79.8103 75.7038 79.8103 75.8556C79.8103 76.0301 79.8311 76.1839 79.8769 76.3356C79.9205 76.4894 79.9871 76.6203 80.0744 76.7513C80.1618 76.8593 80.272 76.9695 80.403 77.036C80.534 77.1004 80.6879 77.1441 80.8625 77.1441C81.4531 77.1441 81.8253 76.8593 81.9563 76.292H81.6507C81.6278 76.4666 81.5404 76.5975 81.4094 76.7076C81.2784 76.8157 81.1245 76.8822 80.9727 76.8822C80.6879 76.8822 80.4695 76.7949 80.3385 76.5975C80.2075 76.4229 80.141 76.2047 80.1202 75.92H82ZM80.141 75.6581C80.1618 75.4399 80.2283 75.2425 80.3593 75.0679C80.4903 74.9141 80.665 74.8497 80.8833 74.8497C81.1246 74.8497 81.32 74.9162 81.451 75.0679C81.582 75.2217 81.6694 75.4171 81.6694 75.6581H80.141Z" fill="#050C14"/>
<path d="M62.7626 1.73395C71.4943 6.83801 72.2512 21.7761 64.4553 35.0994C56.6593 48.4228 43.2592 55.0876 34.5275 49.9835C25.7957 44.8795 25.0388 29.9414 32.8348 16.618C40.6328 3.29468 54.0309 -3.37011 62.7626 1.73395Z" fill="#050C14"/>
<path d="M19.2267 1.70927C10.4992 6.82372 9.75676 21.7535 17.5423 35.0872C25.3508 48.421 38.7592 55.0878 47.4847 49.9942C56.2123 44.9005 56.9547 29.9499 49.1691 16.6162C41.3607 3.28454 27.9543 -3.38232 19.2267 1.70927Z" fill="#FF1F3C"/>
</svg>
