<svg width="78" height="78" viewBox="0 0 78 78" fill="none" xmlns="http://www.w3.org/2000/svg">
<path d="M6.13786 59.4127V63.5679H3.01651V59.4127H0V70.8365H3.01651V66.0666H6.13786V70.8365H9.15437V59.4127H6.13786ZM16.8529 71.0702C20.1819 71.0702 22.5951 68.378 22.5951 65.1135C22.5951 61.8288 20.1819 59.1567 16.8529 59.1567C13.5041 59.1567 11.0889 61.8268 11.0889 65.1135C11.0889 68.378 13.5041 71.0702 16.8529 71.0702ZM16.8529 68.2309C15.7096 68.2309 14.5228 67.5518 14.5228 65.0933C14.5228 62.6349 15.7096 61.9981 16.8529 61.9981C17.9546 61.9981 19.1613 62.6328 19.1613 65.0933C19.1613 67.5518 17.9546 68.2309 16.8529 68.2309ZM30.7506 62.4656L31.1245 59.8157C30.3965 59.5396 29.1266 59.1789 27.8587 59.1789C26.1517 59.1789 23.8631 59.8157 23.8631 62.5281C23.8631 64.6258 25.216 65.3472 27.6906 66.4495C28.46 66.7679 29.0436 67.0218 29.0436 67.6163C29.0436 68.1664 28.4818 68.2954 27.8785 68.2954C27.0675 68.2954 25.9439 68.0415 24.32 67.4269L23.8413 70.2037C25.6512 70.9876 27.0873 71.0521 27.7519 71.0521C30.6853 71.0521 32.0996 69.8007 32.0996 67.576C32.0996 65.5629 30.9346 64.6097 28.5431 63.6968C27.4394 63.2515 26.6501 63.0601 26.6501 62.5321C26.6501 62.0444 27.3365 61.8107 28.0862 61.8107C29.004 61.8087 29.9811 62.1472 30.7506 62.4656ZM37.8656 59.4127H33.6425V70.8365H36.6807V67.3181C40.0098 67.3181 42.4863 66.641 42.4863 63.1004C42.4843 60.4525 40.9038 59.4127 37.8656 59.4127ZM36.6807 64.9442V61.5951H37.6381C38.3463 61.5951 39.5093 61.5951 39.5093 63.2051C39.5093 64.9241 38.8229 64.9442 36.6807 64.9442ZM47.4571 59.4127H44.4188V70.8365H47.4571V59.4127ZM57.735 59.4127H48.7685V61.9356H51.7435V70.8385H54.76V61.9356H57.735V59.4127ZM65.4949 70.8365H69.1562L65.3069 59.4127H61.6653L57.9625 70.8365H61.6258L62.2093 68.2712H64.8935L65.4949 70.8365ZM62.7711 65.7724L63.4357 62.7417H63.6019L64.31 65.7724H62.7711ZM73.4228 59.4127H70.4063V70.8365H77.9802V68.3135H73.4248V59.4127H73.4228Z" fill="#000D44"/>
<path d="M43.8792 76.2205C43.8792 76.0714 43.8574 75.9444 43.7961 75.8598C43.7328 75.755 43.6715 75.6683 43.5666 75.6059C43.4836 75.5212 43.3787 75.4789 43.2759 75.4366C43.171 75.3943 43.0464 75.3298 42.8803 75.2875C42.7339 75.2452 42.6093 75.2028 42.5262 75.1605C42.4214 75.1182 42.3383 75.0759 42.277 75.0114C42.1939 74.9691 42.1306 74.9046 42.089 74.82C42.0258 74.7353 42.006 74.6507 42.006 74.5439C42.006 74.4371 42.0258 74.3524 42.089 74.2678C42.1306 74.2033 42.1939 74.1408 42.2552 74.0985C42.3383 74.0562 42.4214 74.0139 42.5045 73.9917C42.6073 73.9696 42.6923 73.9494 42.7754 73.9494C42.8803 73.9494 42.9634 73.9494 43.0464 73.9716C43.1295 73.9937 43.2126 74.0139 43.2759 74.0562C43.3392 74.0985 43.4005 74.163 43.442 74.2255C43.4836 74.288 43.5033 74.3746 43.5033 74.4794H43.8159C43.7961 74.3101 43.7546 74.1832 43.6913 74.0764C43.6082 73.9696 43.5251 73.8849 43.4203 73.8426C43.3154 73.7781 43.2126 73.7358 43.1077 73.7157C42.9831 73.6733 42.8585 73.6733 42.7537 73.6733C42.6073 73.6733 42.4827 73.6955 42.3581 73.7378C42.2335 73.7801 42.1088 73.8225 42.0238 73.9071C41.9209 73.9917 41.8358 74.0764 41.7745 74.2033C41.7112 74.3101 41.6915 74.4371 41.6915 74.5842C41.6915 74.7313 41.733 74.8603 41.7963 74.9872C41.8596 75.094 41.9427 75.1787 42.0673 75.2633C42.1702 75.3479 42.2948 75.3902 42.3996 75.4547C42.5242 75.497 42.6706 75.5394 42.8566 75.6038C42.9396 75.624 43.0029 75.6462 43.0445 75.6683C43.1908 75.7107 43.3154 75.7953 43.4183 75.8799C43.5014 75.9646 43.5647 76.0915 43.5647 76.2608C43.5647 76.3454 43.5429 76.4522 43.4816 76.5369C43.4401 76.6215 43.3768 76.686 43.2937 76.7283C43.2304 76.7928 43.1473 76.8331 43.0445 76.8552C42.9396 76.8774 42.8565 76.8976 42.7537 76.8976C42.6508 76.8976 42.546 76.8976 42.4411 76.8754C42.3363 76.8532 42.2532 76.8109 42.1701 76.7484C42.1088 76.7061 42.0455 76.6416 42.004 76.557C41.9625 76.4724 41.9407 76.3656 41.9407 76.2386H41.6084C41.6084 76.3656 41.6499 76.4925 41.6915 76.5993C41.7548 76.7263 41.8161 76.8331 41.8992 76.9177C42.004 77.0024 42.1068 77.0648 42.2315 77.1071C42.3343 77.1495 42.4609 77.1716 42.5855 77.1716C42.7735 77.1716 42.9396 77.1716 43.086 77.1293C43.2324 77.087 43.3768 77.0447 43.5014 76.96C43.6062 76.8955 43.7091 76.7908 43.7724 76.6638C43.8376 76.559 43.8792 76.4119 43.8792 76.2205ZM44.795 73.7398H44.524V77.1092H44.795V73.7398ZM47.2082 75.9444C47.2082 76.0512 47.1864 76.1782 47.1667 76.2829C47.1251 76.4099 47.0836 76.4945 47.0203 76.6013C46.957 76.7081 46.8739 76.7706 46.771 76.8351C46.688 76.8996 46.5634 76.9197 46.4388 76.9197C46.3141 76.9197 46.1895 76.8976 46.0847 76.8351C45.9798 76.7726 45.9185 76.7081 45.8552 76.6013C45.7939 76.4966 45.7306 76.4099 45.7089 76.2829C45.6673 76.1761 45.6673 76.0492 45.6673 75.9444C45.6673 75.8175 45.6673 75.7107 45.7089 75.6059C45.7306 75.4789 45.7919 75.3721 45.8552 75.2875C45.9185 75.1807 45.9798 75.096 46.0847 75.0537C46.1895 74.9892 46.3141 74.9469 46.4388 74.9469C46.5634 74.9469 46.688 74.9892 46.771 75.0537C46.8759 75.096 46.959 75.1807 47.0203 75.2875C47.0836 75.3721 47.1251 75.4789 47.1667 75.6059C47.1864 75.7127 47.2082 75.8175 47.2082 75.9444ZM46.4388 74.695C46.2508 74.695 46.1065 74.7373 45.9601 74.8018C45.8355 74.8663 45.7109 74.9711 45.6278 75.0779C45.5447 75.2049 45.4814 75.3318 45.4398 75.4809C45.3765 75.628 45.3568 75.7772 45.3568 75.9464C45.3568 76.0935 45.3785 76.2648 45.4398 76.3918C45.4814 76.5409 45.5447 76.688 45.6278 76.7948C45.7109 76.9217 45.8355 77.0064 45.9601 77.0709C46.1065 77.1555 46.2508 77.1777 46.4388 77.1777C46.6049 77.1777 46.7711 77.1575 46.8957 77.0709C47.0421 77.0084 47.1449 76.9238 47.2498 76.7948C47.3328 76.688 47.3961 76.5409 47.4377 76.3918C47.4792 76.2648 47.499 76.0955 47.499 75.9464C47.499 75.7772 47.4792 75.628 47.4377 75.4809C47.3961 75.3318 47.3328 75.2049 47.2498 75.0779C47.1449 74.9731 47.0421 74.8663 46.8957 74.8018C46.7711 74.7373 46.6049 74.695 46.4388 74.695ZM49.663 75.8819C49.663 76.0089 49.6412 76.1157 49.6214 76.2426C49.5799 76.3494 49.5383 76.4542 49.4968 76.5389C49.4335 76.6457 49.3504 76.7081 49.2674 76.7726C49.1625 76.8149 49.0597 76.8351 48.9351 76.8351C48.8104 76.8351 48.7056 76.8129 48.6225 76.7726C48.5177 76.7081 48.4564 76.6235 48.3931 76.5389C48.3298 76.4542 48.2882 76.3474 48.2467 76.2426C48.2269 76.1157 48.2051 76.0089 48.2051 75.9041C48.2051 75.7993 48.2249 75.6703 48.2467 75.5656C48.2882 75.4588 48.3298 75.354 48.3713 75.2693C48.4346 75.1625 48.5177 75.1001 48.6007 75.0356C48.7056 74.9933 48.8084 74.9509 48.9133 74.9509C49.0379 74.9509 49.1427 74.9933 49.2456 75.0356C49.3287 75.1001 49.4118 75.1625 49.4731 75.2472C49.5364 75.3318 49.5779 75.4386 49.6195 75.5434C49.6432 75.6703 49.663 75.7751 49.663 75.8819ZM49.663 75.1182L49.6412 75.1404C49.5581 74.9912 49.4335 74.8865 49.3287 74.822C49.2041 74.7373 49.0577 74.695 48.8916 74.695C48.7254 74.695 48.579 74.7373 48.4544 74.8018C48.3297 74.8663 48.2249 74.9509 48.1419 75.0779C48.0588 75.1847 47.9955 75.3116 47.9757 75.4588C47.9342 75.6079 47.9124 75.755 47.9124 75.9242C47.9124 76.0935 47.9342 76.2426 47.9757 76.3897C48.0172 76.5167 48.0805 76.6437 48.1419 76.7505C48.2249 76.8573 48.3297 76.9419 48.4544 77.0044C48.579 77.0668 48.7254 77.1092 48.8916 77.1092C49.0577 77.1092 49.204 77.0668 49.3504 76.9822C49.475 76.8976 49.5799 76.7908 49.6412 76.6638H49.663V77.1092C49.663 77.3006 49.5799 77.4477 49.4553 77.5746C49.3089 77.6814 49.1427 77.7439 48.9568 77.7439C48.7906 77.7439 48.6443 77.7238 48.5197 77.6593C48.395 77.5948 48.3317 77.5102 48.3119 77.3832H48.0212C48.0212 77.488 48.0409 77.5948 48.1042 77.6794C48.1458 77.7439 48.2289 77.8064 48.3119 77.8709C48.395 77.9132 48.4999 77.9555 48.6027 77.9777C48.7076 77.9998 48.8104 77.9999 48.9351 77.9999C49.0379 77.9999 49.1229 77.9998 49.206 77.9777C49.2693 77.9777 49.3524 77.9354 49.4553 77.893C49.5601 77.8507 49.6432 77.7862 49.7045 77.7016C49.7876 77.617 49.8291 77.5323 49.8707 77.4255C49.8904 77.3409 49.9122 77.2341 49.9122 77.1071C49.932 77.0023 49.932 76.8734 49.932 76.7041V75.2834C49.932 75.1988 49.932 75.0497 49.9537 74.8603V74.7756H49.663V75.1182ZM50.7232 76.4542C50.7232 76.3273 50.745 76.2426 50.8063 76.158C50.8676 76.0935 50.9527 76.0512 51.0555 76.0089C51.1584 75.9666 51.2632 75.9444 51.3878 75.9444C51.4907 75.9444 51.6172 75.9444 51.7616 75.9222C51.8447 75.9222 51.8863 75.9222 51.9081 75.9222C51.9081 75.9444 51.9081 75.9645 51.9081 75.9867C51.9278 76.029 51.9278 76.0512 51.9278 76.0714C51.9278 76.1782 51.908 76.2829 51.8863 76.3897C51.8665 76.4965 51.825 76.5812 51.7814 76.6658C51.7181 76.7505 51.6568 76.8149 51.552 76.8573C51.4689 76.8996 51.3641 76.9217 51.2197 76.9217C51.0733 76.9217 50.9487 76.8794 50.8656 76.8149C50.7647 76.7283 50.7232 76.6013 50.7232 76.4542ZM51.91 75.6703C51.8685 75.6703 51.7854 75.6703 51.639 75.6703C51.4729 75.6703 51.3265 75.6925 51.2019 75.6925C51.097 75.7147 50.9724 75.7348 50.8696 75.7771C50.745 75.8416 50.6203 75.9263 50.5372 76.0532C50.4542 76.16 50.4127 76.3071 50.4127 76.4562C50.4127 76.69 50.4957 76.8593 50.6421 76.9862C50.7885 77.1132 50.9546 77.1777 51.1821 77.1777C51.3285 77.1777 51.4728 77.1575 51.6192 77.0709C51.7438 76.9862 51.8487 76.9016 51.91 76.7948V76.7746H51.9298V77.1132H52.2206C52.2206 77.0709 52.1988 77.0286 52.1988 77.0286C52.1988 76.8371 52.1988 76.7102 52.1988 76.5832V75.4809C52.1988 75.2049 52.1157 75.0154 51.9693 74.8865C51.8447 74.7595 51.637 74.695 51.366 74.695C51.1366 74.695 50.9507 74.7595 50.7845 74.8643C50.6381 74.9711 50.5551 75.1404 50.5135 75.3721H50.8043C50.8241 75.2028 50.8874 75.1182 50.9922 75.0537C51.0753 74.9892 51.2216 74.9469 51.366 74.9469C51.5322 74.9469 51.6786 74.9892 51.7616 75.0739C51.8447 75.1383 51.9081 75.2653 51.9081 75.4547V75.6703H51.91ZM53.1799 75.755C53.1799 75.5434 53.2432 75.3519 53.346 75.1827C53.4707 75.0336 53.6368 74.9489 53.8445 74.9489C54.0324 74.9489 54.1769 75.0134 54.2817 75.1182C54.3865 75.2451 54.4478 75.3943 54.4478 75.6059V77.1112H54.7188V75.6482C54.7188 75.5635 54.7188 75.4567 54.6971 75.352C54.6773 75.2673 54.6357 75.1605 54.5942 75.0557C54.5309 74.9489 54.4478 74.8643 54.345 74.8018C54.2204 74.7394 54.074 74.695 53.9078 74.695C53.7615 74.695 53.617 74.7373 53.4924 74.8018C53.3678 74.8865 53.263 74.9933 53.2017 75.1202H53.1799L53.1581 74.7817H52.8872V74.8663C52.907 75.0577 52.9069 75.2048 52.9069 75.2895V77.1112H53.1779V75.755H53.1799ZM58.1092 75.3943V75.6703H58.9419V76.7726C58.7956 76.8149 58.6709 76.8351 58.5463 76.8573C58.4415 76.8996 58.3169 76.8996 58.214 76.8996C58.0063 76.8996 57.7986 76.8573 57.6522 76.7928C57.4861 76.7283 57.3615 76.6235 57.2566 76.4966C57.1518 76.3696 57.0905 76.2003 57.049 76.0311C56.9857 75.8396 56.9659 75.6502 56.9659 75.4366C56.9659 75.2451 56.9876 75.0759 57.0292 74.8865C57.0707 74.7172 57.134 74.5681 57.2171 74.421C57.3199 74.2739 57.4248 74.1671 57.5712 74.0824C57.7175 73.9978 57.8837 73.9555 58.0716 73.9555C58.2793 73.9555 58.4672 74.0199 58.6136 74.1247C58.7797 74.2315 58.8628 74.3786 58.8846 74.5701H59.2386C59.2189 74.4431 59.1754 74.3162 59.114 74.1892C59.031 74.0824 58.9479 73.9776 58.843 73.9131C58.7382 73.8285 58.6136 73.764 58.4692 73.7439C58.3446 73.7016 58.1982 73.6794 58.0736 73.6794C57.8441 73.6794 57.6364 73.7217 57.4485 73.8285C57.2823 73.9131 57.136 74.0623 57.0114 74.2315C56.8867 74.3807 56.8037 74.5701 56.7404 74.7817C56.6771 74.9933 56.6573 75.2048 56.6573 75.4386C56.6573 75.6925 56.6771 75.9263 56.7404 76.1379C56.8037 76.3494 56.9065 76.5409 57.0312 76.69C57.136 76.8593 57.3021 76.9661 57.4683 77.0507C57.6562 77.1354 57.8422 77.1777 58.0716 77.1777C58.2793 77.1777 58.487 77.1777 58.6749 77.1353C58.8628 77.093 59.0488 77.0507 59.2584 76.9661V75.3983H58.1092V75.3943ZM61.7092 75.9444C61.7092 76.0512 61.6875 76.1782 61.6677 76.2829C61.6261 76.4099 61.5846 76.4945 61.5213 76.6013C61.458 76.7081 61.3749 76.7706 61.2721 76.8351C61.189 76.8996 61.0644 76.9197 60.9398 76.9197C60.7934 76.9197 60.6905 76.8976 60.5857 76.8351C60.4809 76.7726 60.4195 76.7081 60.3563 76.6013C60.293 76.4966 60.2316 76.4099 60.2099 76.2829C60.1683 76.1761 60.1683 76.0492 60.1683 75.9444C60.1683 75.8175 60.1683 75.7107 60.2099 75.6059C60.2316 75.4789 60.293 75.3721 60.3563 75.2875C60.4195 75.1807 60.4809 75.096 60.5857 75.0537C60.6885 74.9892 60.7934 74.9469 60.9398 74.9469C61.0644 74.9469 61.189 74.9892 61.2721 75.0537C61.3769 75.096 61.46 75.1807 61.5213 75.2875C61.5846 75.3721 61.6261 75.4789 61.6677 75.6059C61.6894 75.7127 61.7092 75.8175 61.7092 75.9444ZM60.9398 74.695C60.7519 74.695 60.6075 74.7373 60.4611 74.8018C60.3365 74.8663 60.2118 74.9711 60.1287 75.0779C60.0457 75.2049 59.9824 75.3318 59.9408 75.4809C59.8775 75.628 59.8578 75.7772 59.8578 75.9464C59.8578 76.0935 59.8775 76.2648 59.9408 76.3918C59.9824 76.5409 60.0457 76.688 60.1287 76.7948C60.2118 76.9217 60.3365 77.0064 60.4611 77.0709C60.6075 77.1555 60.7519 77.1777 60.9398 77.1777C61.1059 77.1777 61.2721 77.1575 61.3967 77.0709C61.5431 77.0084 61.6459 76.9238 61.7507 76.7948C61.8338 76.688 61.8971 76.5409 61.9387 76.3918C61.9802 76.2648 62 76.0955 62 75.9464C62 75.7772 61.9802 75.628 61.9387 75.4809C61.8971 75.3318 61.8338 75.2049 61.7507 75.0779C61.6459 74.9731 61.5431 74.8663 61.3967 74.8018C61.2721 74.7373 61.1059 74.695 60.9398 74.695ZM64.5181 76.0089C64.5181 75.8175 64.4963 75.6482 64.4567 75.4789C64.4152 75.3298 64.3519 75.1827 64.2688 75.0759C64.1857 74.9489 64.0809 74.8643 63.9365 74.7998C63.8119 74.7373 63.6457 74.693 63.4578 74.693C63.2916 74.693 63.1453 74.7353 63.0207 74.7998C62.896 74.8643 62.7912 74.9489 62.6884 75.0759C62.6053 75.1827 62.542 75.3298 62.5004 75.4789C62.4589 75.626 62.4372 75.7751 62.4372 75.9444C62.4372 76.0915 62.4589 76.2628 62.5004 76.4099C62.542 76.559 62.6053 76.686 62.6884 76.8129C62.7714 76.9197 62.8762 77.0044 63.0009 77.089C63.1255 77.1535 63.2718 77.1736 63.438 77.1736C63.9998 77.1736 64.3538 76.8976 64.4785 76.3676H64.1877C64.1659 76.5167 64.0829 76.6638 63.9602 76.7706C63.8356 76.8754 63.6892 76.9197 63.5428 76.9197C63.2719 76.9197 63.0642 76.8351 62.9395 76.6658C62.8149 76.4966 62.7517 76.285 62.7319 76.0089H64.5181ZM62.7497 75.755C62.7714 75.5212 62.8327 75.3318 62.9574 75.1827C63.082 75.0336 63.2481 74.9489 63.4578 74.9489C63.6873 74.9489 63.8732 75.0336 63.9998 75.1827C64.1244 75.3096 64.2075 75.5011 64.2075 75.755H62.7497ZM65.0383 75.352C65.0383 75.4588 65.06 75.5434 65.1016 75.6059C65.1431 75.6905 65.1846 75.755 65.2677 75.7973C65.331 75.8396 65.3923 75.8819 65.4754 75.9021C65.5585 75.9243 65.6415 75.9444 65.7662 75.9867C65.7879 75.9867 65.8077 75.9867 65.8493 76.0089C65.9541 76.0311 66.0372 76.0512 66.0985 76.0714C66.1816 76.0915 66.2448 76.1137 66.3062 76.1338C66.3695 76.1761 66.411 76.2185 66.4525 76.2608C66.4723 76.3233 66.4941 76.3877 66.4941 76.4522C66.4941 76.6013 66.4308 76.7283 66.3279 76.8129C66.2033 76.8774 66.057 76.9197 65.8908 76.9197C65.7246 76.9197 65.5783 76.8976 65.4537 76.8129C65.329 76.7505 65.2657 76.6437 65.2657 76.4744H64.9532C64.975 76.6013 64.9947 76.7081 65.0363 76.7928C65.0996 76.8774 65.1609 76.9621 65.244 77.0265C65.3271 77.0689 65.4101 77.1112 65.5149 77.1333C65.6198 77.1756 65.7227 77.1757 65.8275 77.1757C65.9521 77.1757 66.0767 77.1756 66.1816 77.1333C66.3062 77.1112 66.411 77.0487 66.4941 76.9842C66.5772 76.9217 66.6603 76.8573 66.7235 76.7505C66.7651 76.6658 66.7849 76.5389 66.7849 76.4119C66.7849 76.285 66.7651 76.1782 66.682 76.0734C66.6187 75.9887 66.5158 75.9041 66.411 75.8618C66.2864 75.8195 66.1203 75.7771 65.8908 75.7147C65.7029 75.6724 65.5585 75.63 65.4537 75.5656C65.3706 75.5232 65.329 75.4386 65.329 75.3318C65.329 75.2048 65.3904 75.1202 65.4952 75.0557C65.6 74.9912 65.7029 74.9489 65.8493 74.9489C66.0154 74.9489 66.14 74.9912 66.2449 75.0557C66.3497 75.1202 66.411 75.2048 66.4328 75.352H66.7235C66.7038 75.1182 66.6187 74.9489 66.4743 74.8441C66.3279 74.7595 66.1203 74.695 65.8928 74.695C65.7682 74.695 65.6851 74.7172 65.5802 74.7373C65.4754 74.7575 65.3923 74.7998 65.3093 74.8421C65.2262 74.9066 65.1629 74.9691 65.1213 75.0537C65.06 75.1404 65.0383 75.2452 65.0383 75.352ZM69.0734 77.1112V75.5011H70.8636V77.1112H71.1543V73.7419H70.8636V75.225H69.0734V73.7419H68.7609V77.1112H69.0734ZM73.9216 76.0089C73.9216 75.8175 73.9019 75.6482 73.8603 75.4789C73.8188 75.3298 73.7555 75.1827 73.6724 75.0759C73.6111 74.9489 73.4865 74.8643 73.3599 74.7998C73.2135 74.7373 73.0473 74.693 72.8812 74.693C72.715 74.693 72.5687 74.7353 72.4223 74.7998C72.2977 74.8643 72.1948 74.9489 72.1097 75.0759C72.0267 75.1827 71.9634 75.3298 71.902 75.4789C71.8605 75.626 71.8387 75.7751 71.8387 75.9444C71.8387 76.0915 71.8605 76.2628 71.902 76.4099C71.9436 76.559 72.0069 76.686 72.0899 76.8129C72.173 76.9197 72.2779 77.0044 72.4223 77.089C72.5469 77.1535 72.6933 77.1736 72.8594 77.1736C73.3994 77.1736 73.7535 76.8976 73.8999 76.3676H73.6091C73.5676 76.5167 73.4845 76.6638 73.3599 76.7706C73.2353 76.8754 73.1106 76.9197 72.9445 76.9197C72.6735 76.9197 72.4875 76.8351 72.3412 76.6658C72.2165 76.4966 72.1533 76.285 72.1533 76.0089H73.9216ZM72.1533 75.755C72.173 75.5212 72.2581 75.3318 72.3827 75.1827C72.5073 75.0336 72.6735 74.9489 72.8812 74.9489C73.1106 74.9489 73.2768 75.0336 73.4014 75.1827C73.526 75.3096 73.6091 75.5011 73.6308 75.755H72.1533ZM74.7959 75.7127C74.8177 75.4789 74.8592 75.2895 74.9838 75.1605C75.0887 75.0336 75.2331 74.9489 75.4408 74.9489C75.4625 74.9489 75.4823 74.9711 75.5456 74.9711C75.5674 74.9711 75.5871 74.9711 75.6069 74.9711V74.695C75.5871 74.695 75.5654 74.695 75.5238 74.695C75.4605 74.695 75.3992 74.695 75.3359 74.695C75.2113 74.695 75.1065 74.7373 75.0234 74.822C74.9186 74.9066 74.8572 74.9912 74.8157 75.1182H74.794V74.7796H74.5032C74.5032 74.822 74.5032 74.8421 74.5032 74.8643C74.523 75.0336 74.5229 75.1827 74.5229 75.2875V77.1092H74.794V75.7127H74.7959ZM78.0003 76.0089C78.0003 75.8175 77.9786 75.6482 77.937 75.4789C77.8955 75.3298 77.8322 75.1827 77.7491 75.0759C77.6661 74.9489 77.5612 74.8643 77.4168 74.7998C77.2922 74.7373 77.126 74.693 76.9381 74.693C76.772 74.693 76.6256 74.7353 76.501 74.7998C76.3764 74.8643 76.2518 74.9489 76.1687 75.0759C76.0856 75.1827 76.0223 75.3298 75.9808 75.4789C75.9392 75.626 75.9194 75.7751 75.9194 75.9444C75.9194 76.0915 75.9392 76.2628 75.9808 76.4099C76.0223 76.559 76.0856 76.686 76.1687 76.8129C76.2518 76.9197 76.3566 77.0044 76.4812 77.089C76.6058 77.1535 76.7522 77.1736 76.9184 77.1736C77.4801 77.1736 77.8342 76.8976 77.9588 76.3676H77.6681C77.6483 76.5167 77.5652 76.6638 77.4386 76.7706C77.3139 76.8754 77.1676 76.9197 77.0014 76.9197C76.7522 76.9197 76.5445 76.8351 76.4179 76.6658C76.2933 76.4966 76.2102 76.285 76.2102 76.0089H78.0003ZM76.232 75.755C76.2518 75.5212 76.315 75.3318 76.4396 75.1827C76.5643 75.0336 76.7304 74.9489 76.9381 74.9489C77.1676 74.9489 77.3535 75.0336 77.4781 75.1827C77.6027 75.3096 77.666 75.5011 77.6858 75.755H76.232Z" fill="#050C14"/>
<path d="M46.9782 31.6458H58.4212C58.9612 31.6458 59.606 31.285 60.1282 30.7551C60.6266 30.2251 61.0025 29.5883 61.0025 29.016V21.1126C61.0025 20.5403 60.6484 19.8834 60.1282 19.3534C59.608 18.8456 58.9631 18.4627 58.4212 18.4627H48.0602V21.1126C48.0602 24.2703 46.3749 27.5772 43.9201 30.078C41.4654 32.5788 38.2194 34.2957 35.1199 34.2957H32.5188V44.851C32.5188 45.4031 32.8926 46.06 33.393 46.59C33.9133 47.12 34.5581 47.4807 35.1199 47.4807H42.8797C43.3782 47.4807 43.9815 47.0575 44.4819 46.4852C45.0635 45.8505 45.4591 45.0646 45.4591 44.4499V32.9616C45.4591 32.2201 46.0426 31.6256 46.7705 31.6256C46.8338 31.6256 46.9169 31.6256 46.9782 31.6458ZM58.4212 34.2957H48.0602V44.4479C48.0602 45.7417 47.3936 47.1825 46.4165 48.2848C45.4591 49.3447 44.1694 50.1286 42.8797 50.1286H35.1199C33.8302 50.1286 32.5187 49.4495 31.5633 48.454C30.5862 47.4787 29.9196 46.1447 29.9196 44.851V34.2957H19.5804C18.3322 34.2957 17.0624 33.6589 16.105 32.7057L16.0219 32.6412C15.0645 31.6458 14.3999 30.3097 14.3999 29.016V21.1126C14.3999 19.7987 15.0665 18.4627 16.0219 17.4874C16.999 16.4919 18.3105 15.8128 19.5804 15.8128H29.9196V5.27765C29.9196 3.98393 30.5862 2.64991 31.5633 1.65242C32.5405 0.677089 33.8302 0 35.1199 0H42.8797C44.1061 0 45.376 0.636787 46.3551 1.58995L46.4165 1.65443C47.3956 2.64991 48.0602 3.98595 48.0602 5.27967V15.8148H58.4212C59.6911 15.8148 61.0005 16.4919 61.9579 17.4894C62.935 18.4849 63.6016 19.7987 63.6016 21.1146V29.02C63.6016 30.3137 62.935 31.6478 61.9579 32.6453V32.6251C60.9807 33.6186 59.6911 34.2957 58.4212 34.2957ZM45.4591 18.4627H32.5188V31.6458H35.1199C37.4915 31.6458 40.0728 30.2251 42.0687 28.1898C44.0665 26.1545 45.4591 23.5268 45.4591 21.1106V18.4627ZM29.9176 18.4627H19.5784C19.0166 18.4627 18.3916 18.8436 17.8733 19.3736C17.3531 19.8814 16.999 20.5403 16.999 21.1126V29.018C16.999 29.5903 17.3531 30.2271 17.8733 30.7571L17.9149 30.8195C18.4351 31.3072 19.0384 31.6458 19.5784 31.6458H29.9176V18.4627ZM32.5188 15.8128H45.4591V5.27765C45.4591 4.70535 45.105 4.06857 44.5848 3.53859L44.5235 3.4741C44.023 2.98644 43.4197 2.6479 42.8797 2.6479H35.1199C34.5581 2.6479 33.9133 3.00861 33.393 3.53859C32.8946 4.06857 32.5188 4.70535 32.5188 5.27765V15.8128Z" fill="#050C14"/>
</svg>
