<svg width="80" height="78" viewBox="0 0 80 78" fill="none" xmlns="http://www.w3.org/2000/svg">
<path d="M6.29699 59.4102V63.5654H3.09472V59.4102H0V70.834H3.09472V66.0662H6.29699V70.834H9.39171V59.4102H6.29699ZM17.2898 71.0678C20.7052 71.0678 23.181 68.3756 23.181 65.1111C23.181 61.8264 20.7052 59.1543 17.2898 59.1543C13.8542 59.1543 11.3764 61.8244 11.3764 65.1111C11.3784 68.3756 13.8542 71.0678 17.2898 71.0678ZM17.2898 68.2285C16.1149 68.2285 14.8993 67.5494 14.8993 65.0909C14.8993 62.6324 16.1149 61.9956 17.2898 61.9956C18.4202 61.9956 19.6601 62.6324 19.6601 65.0909C19.6601 67.5494 18.4222 68.2285 17.2898 68.2285ZM31.5479 62.4632L31.9314 59.8133C31.1623 59.5372 29.8818 59.1785 28.581 59.1785C26.8297 59.1785 24.4818 59.8132 24.4818 62.5276C24.4818 64.6254 25.8698 65.3468 28.4085 66.4491C29.1979 66.7675 29.7966 67.0214 29.7966 67.6159C29.7966 68.166 29.2202 68.295 28.6013 68.295C27.7693 68.295 26.6166 68.0411 24.9302 67.4265L24.4391 70.2033C26.296 70.9872 27.7693 71.0517 28.4511 71.0517C31.4829 71.0517 32.9339 69.8003 32.9339 67.5756C32.9339 65.5624 31.7386 64.6093 29.2852 63.6964C28.1528 63.2511 27.3431 63.0596 27.3431 62.5297C27.3431 62.042 28.027 61.8082 28.8164 61.8082C29.756 61.8062 30.7585 62.1448 31.5479 62.4632ZM38.827 59.4102H34.5147V70.834H37.6318V67.3156C41.0471 67.3156 43.5878 66.6385 43.5878 63.0979C43.5878 60.45 41.9644 59.4102 38.827 59.4102ZM37.6318 64.9418V61.5926H38.614C39.3181 61.5926 40.5357 61.5926 40.5357 63.2027C40.5357 64.9216 39.8295 64.9418 37.6318 64.9418ZM48.6896 59.4102H45.5725V70.834H48.6896V59.4102ZM59.2319 59.4102H50.033V61.9332H53.0851V70.834H56.1798V61.9332H59.2319V59.4102ZM67.195 70.834H70.9512L67.0022 59.4102H63.2662L59.4673 70.834H63.2236L63.8202 68.2708H66.574L67.195 70.834ZM64.3762 65.77L65.0601 62.7392H65.2306L65.9774 65.77H64.3762ZM75.3265 59.4102H72.2094V70.834H80V68.3131H75.3265V59.4102Z" fill="#000D44"/>
<path d="M45.0165 76.218C45.0165 76.0689 44.9942 75.942 44.9313 75.8573C44.8663 75.7525 44.8034 75.6659 44.6959 75.6034C44.6107 75.5188 44.5031 75.4765 44.3976 75.4341C44.292 75.3918 44.1622 75.3273 43.9917 75.285C43.8415 75.2427 43.7137 75.2004 43.6285 75.1581C43.5229 75.1158 43.4357 75.0734 43.3504 75.009C43.2855 74.9666 43.2226 74.9021 43.1577 74.8175C43.115 74.7329 43.0927 74.6482 43.0927 74.5414C43.0927 74.4346 43.113 74.35 43.1577 74.2654C43.2206 74.2009 43.2855 74.1384 43.3504 74.0961C43.4357 74.0538 43.5209 74.0114 43.6061 73.9893C43.6914 73.9671 43.7989 73.947 43.8842 73.947C43.9694 73.947 44.0769 73.947 44.1622 73.9691C44.2474 73.9913 44.3123 74.0114 44.3976 74.0538C44.4625 74.0961 44.5051 74.1586 44.5477 74.223C44.5904 74.2875 44.6127 74.3722 44.633 74.477H44.9536C44.9333 74.3077 44.8887 74.1807 44.8258 74.0739C44.7405 73.9671 44.6553 73.8825 44.5477 73.8402C44.4402 73.7757 44.3347 73.7334 44.2068 73.7132C44.0993 73.6709 43.9714 73.6709 43.8436 73.6709C43.7157 73.6709 43.5879 73.6931 43.46 73.7354C43.3322 73.7777 43.2043 73.82 43.0968 73.9046C43.0116 73.9893 42.9263 74.0739 42.8614 74.2009C42.7964 74.3077 42.7761 74.4346 42.7761 74.5817C42.7761 74.7309 42.7964 74.8578 42.8837 74.9848C42.9466 75.0916 43.0339 75.1762 43.1617 75.2608C43.2672 75.3455 43.3748 75.3878 43.5026 75.4523C43.6305 75.4946 43.7807 75.5369 43.9714 75.6014C44.0567 75.6236 44.1216 75.6437 44.1642 75.6659C44.3144 75.7082 44.4422 75.7928 44.5477 75.8775C44.633 75.9621 44.6756 76.0891 44.6756 76.2583C44.6756 76.343 44.6553 76.4498 44.6127 76.5344C44.5701 76.619 44.5051 76.6835 44.4199 76.7258C44.3347 76.7903 44.2494 76.8326 44.1642 76.8528C44.0566 76.875 43.9714 76.8951 43.8659 76.8951C43.7604 76.8951 43.6305 76.8951 43.5453 76.873C43.4377 76.8508 43.3525 76.8085 43.2672 76.746C43.2043 76.7037 43.1394 76.6412 43.0968 76.5545C43.0542 76.4699 43.0115 76.3631 43.0115 76.2362H42.6909C42.6909 76.3631 42.7132 76.4901 42.7761 76.5969C42.8188 76.7238 42.904 76.8306 42.9892 76.9153C43.0968 76.9999 43.2023 77.0624 43.3099 77.1067C43.4377 77.149 43.5656 77.1712 43.6934 77.1712C43.8862 77.1712 44.0566 77.1712 44.2048 77.1289C44.355 77.0865 44.5031 77.0442 44.6107 76.9596C44.7385 76.8951 44.8461 76.7903 44.909 76.6634C44.9739 76.5566 45.0165 76.4095 45.0165 76.218ZM45.9561 73.7374H45.6578V77.1067H45.9561V73.7374ZM48.4319 75.942C48.4319 76.0488 48.4116 76.1757 48.3892 76.2805C48.3466 76.4074 48.304 76.4921 48.2391 76.5989C48.1741 76.7057 48.0889 76.7682 47.9834 76.8326C47.8779 76.8971 47.7703 76.9173 47.6425 76.9173C47.4923 76.9173 47.3868 76.8951 47.2792 76.8326C47.1717 76.7702 47.0864 76.7057 47.0235 76.5989C46.9586 76.4941 46.916 76.4074 46.8957 76.2805C46.8531 76.1737 46.8307 76.0468 46.8307 75.942C46.8307 75.815 46.851 75.7082 46.8957 75.6034C46.916 75.4765 46.9606 75.3697 47.0235 75.285C47.0885 75.1782 47.1737 75.0936 47.2792 75.0513C47.3868 74.9868 47.4923 74.9445 47.6425 74.9445C47.7703 74.9445 47.8779 74.9868 47.9834 75.0513C48.0909 75.0936 48.1762 75.1782 48.2391 75.285C48.302 75.3697 48.3466 75.4765 48.3892 75.6034C48.4116 75.7102 48.4319 75.815 48.4319 75.942ZM47.6425 74.6926C47.4497 74.6926 47.3015 74.7349 47.1514 74.7994C47.0235 74.8639 46.8957 74.9686 46.8104 75.0754C46.7252 75.2024 46.64 75.3294 46.5974 75.4785C46.5547 75.6276 46.5324 75.7747 46.5324 75.944C46.5324 76.0931 46.5527 76.2624 46.5974 76.3893C46.64 76.5364 46.7252 76.6855 46.8104 76.7923C46.8957 76.9193 47.0235 77.0039 47.1514 77.0684C47.3015 77.1531 47.4497 77.1752 47.6425 77.1752C47.8129 77.1752 47.9834 77.1531 48.1112 77.0684C48.2614 77.006 48.3669 76.9213 48.4522 76.7923C48.5597 76.6855 48.6226 76.5384 48.6652 76.3893C48.7079 76.2624 48.7302 76.0931 48.7302 75.944C48.7302 75.7747 48.7099 75.6256 48.6652 75.4785C48.6226 75.3294 48.5577 75.2024 48.4522 75.0754C48.3669 74.9686 48.2594 74.8639 48.1112 74.7994C47.9834 74.7349 47.8129 74.6926 47.6425 74.6926ZM50.93 75.8795C50.93 76.0064 50.93 76.1132 50.8873 76.2402C50.865 76.347 50.8224 76.4518 50.7595 76.5364C50.7169 76.6432 50.6317 76.7057 50.5241 76.7702C50.4389 76.8125 50.3313 76.8326 50.1832 76.8326C50.0756 76.8326 49.9701 76.8105 49.8625 76.7702C49.7773 76.7057 49.6921 76.6211 49.6271 76.5364C49.5845 76.4518 49.5196 76.345 49.4993 76.2402C49.479 76.1132 49.4567 76.0064 49.4567 75.9016C49.4567 75.7948 49.479 75.6679 49.4993 75.5631C49.5216 75.4563 49.5642 75.3515 49.6271 75.2669C49.6921 75.1601 49.755 75.0976 49.8625 75.0331C49.9478 74.9908 50.0553 74.9485 50.1832 74.9485C50.311 74.9485 50.4186 74.9908 50.5038 75.0331C50.6114 75.0956 50.6966 75.1601 50.7595 75.2447C50.8244 75.3293 50.8671 75.4361 50.8873 75.5409C50.93 75.6679 50.93 75.7727 50.93 75.8795ZM50.93 75.1157V75.1379C50.8224 74.9888 50.7169 74.884 50.589 74.8195C50.4612 74.7349 50.3313 74.6926 50.1629 74.6926C49.9924 74.6926 49.8423 74.7349 49.7144 74.7994C49.5866 74.8639 49.479 74.9485 49.3938 75.0754C49.3085 75.1822 49.2436 75.3092 49.201 75.4563C49.1807 75.6054 49.1584 75.7525 49.1584 75.9218C49.1584 76.0911 49.1807 76.2402 49.2213 76.3893C49.2416 76.5163 49.3065 76.6432 49.3917 76.75C49.477 76.8568 49.5845 76.9415 49.7124 77.0039C49.8402 77.0664 49.9904 77.1087 50.1609 77.1087C50.3313 77.1087 50.4815 77.0664 50.6093 76.9818C50.7595 76.8971 50.865 76.7903 50.93 76.6634V77.1087C50.93 77.3002 50.865 77.4473 50.7169 77.5742C50.589 77.681 50.4186 77.7435 50.2258 77.7435C50.0553 77.7435 49.9052 77.7213 49.7773 77.6588C49.6495 77.5944 49.5845 77.5097 49.5642 77.3828H49.2436C49.2436 77.4896 49.2862 77.5944 49.3288 77.679C49.3917 77.7435 49.4567 77.806 49.5642 77.8704C49.6495 77.9128 49.757 77.9551 49.8625 77.9772C49.9701 77.9994 50.0756 77.9994 50.1832 77.9994C50.311 77.9994 50.3963 77.9994 50.4815 77.9772C50.5464 77.9772 50.6317 77.9349 50.7169 77.8926C50.8447 77.8503 50.93 77.7858 50.9949 77.7012C51.0598 77.6165 51.1228 77.5319 51.1451 77.4251C51.1877 77.3405 51.21 77.2336 51.21 77.1067C51.21 77.0019 51.2303 76.8729 51.2303 76.7037V75.283C51.2303 75.1984 51.2303 75.0492 51.2526 74.8598V74.7752H50.9543L50.93 75.1157ZM52.0177 76.4518C52.0177 76.3248 52.0603 76.2402 52.1252 76.1556C52.1882 76.0911 52.2754 76.0488 52.3809 76.0064C52.4885 75.9641 52.594 75.944 52.7016 75.944C52.8091 75.944 52.937 75.944 53.1074 75.9218C53.1927 75.9218 53.2353 75.9218 53.2576 75.9218C53.2576 75.944 53.2576 75.9641 53.2576 75.9863C53.2576 76.0286 53.2576 76.0487 53.2576 76.0709C53.2576 76.1777 53.2576 76.2825 53.2373 76.3893C53.215 76.4961 53.1724 76.5808 53.1095 76.6654C53.0668 76.75 52.9816 76.8145 52.8964 76.8568C52.8112 76.8991 52.6833 76.9213 52.5555 76.9213C52.4053 76.9213 52.2774 76.879 52.1719 76.8145C52.0826 76.7279 52.0177 76.5989 52.0177 76.4518ZM53.2556 75.6679C53.213 75.6679 53.1054 75.6679 52.9776 75.6679C52.7848 75.6679 52.6366 75.6901 52.5291 75.6901C52.4012 75.7122 52.2937 75.7324 52.1881 75.7747C52.038 75.8392 51.9325 75.9238 51.8472 76.0508C51.762 76.1576 51.7194 76.3047 51.7194 76.4538C51.7194 76.6875 51.7843 76.8568 51.9325 76.9838C52.0826 77.1107 52.2734 77.1752 52.5088 77.1752C52.659 77.1752 52.8071 77.1531 52.9573 77.0684C53.0851 76.9838 53.1927 76.8991 53.2353 76.7923L53.2556 76.7702L53.2759 77.1087H53.5539C53.5539 77.0664 53.5539 77.0241 53.5539 77.0241C53.5539 76.8327 53.5336 76.7057 53.5336 76.5787V75.4765C53.5336 75.2004 53.4687 75.011 53.3205 74.884C53.1703 74.7571 52.9796 74.6926 52.7016 74.6926C52.4662 74.6926 52.2754 74.757 52.1049 74.8618C51.9548 74.9686 51.8492 75.1379 51.8269 75.3696H52.1252C52.1476 75.2004 52.2105 75.1157 52.2957 75.0513C52.4012 74.9868 52.5311 74.9445 52.7016 74.9445C52.872 74.9445 52.9999 74.9868 53.1074 75.0714C53.1927 75.1359 53.2576 75.2629 53.2576 75.4523V75.6679H53.2556ZM54.5584 75.7525C54.5584 75.5409 54.6233 75.3495 54.7289 75.1802C54.8364 75.0311 55.0069 74.9465 55.2423 74.9465C55.4351 74.9465 55.5832 75.011 55.6908 75.1157C55.7983 75.2427 55.8612 75.3918 55.8612 75.6034V77.1087H56.1392V75.6457C56.1392 75.5611 56.1189 75.4543 56.1189 75.3495C56.0966 75.2649 56.054 75.1581 55.9911 75.0533C55.9485 74.9465 55.8633 74.8618 55.7354 74.7994C55.6278 74.7349 55.4797 74.6926 55.3093 74.6926C55.1591 74.6926 55.0109 74.7349 54.8831 74.7994C54.7552 74.884 54.6477 74.9908 54.5625 75.1178L54.5422 74.7792H54.2641V74.8638C54.2641 75.0553 54.2865 75.2024 54.2865 75.287V77.1087H54.5645V75.7525H54.5584ZM59.6175 75.3918V75.6679H60.4718V76.7702C60.3217 76.8125 60.1938 76.8326 60.066 76.8548C59.9605 76.8971 59.8326 76.8971 59.7251 76.8971C59.4897 76.8971 59.2989 76.8548 59.1487 76.7903C58.9783 76.7258 58.8504 76.6211 58.7429 76.4941C58.6353 76.3672 58.5724 76.1979 58.5075 76.0286C58.4649 75.8372 58.4446 75.6477 58.4446 75.4341C58.4446 75.2427 58.4649 75.0734 58.5075 74.884C58.5501 74.7147 58.615 74.5656 58.7002 74.4165C58.7855 74.2694 58.9133 74.1626 59.0635 74.078C59.1913 73.9933 59.3618 73.951 59.5546 73.951C59.79 73.951 59.9605 74.0155 60.1309 74.1203C60.2811 74.2271 60.3866 74.3742 60.4089 74.5656H60.7499C60.7499 74.4387 60.7073 74.3117 60.622 74.1847C60.5571 74.08 60.4718 73.9732 60.3663 73.9087C60.2385 73.824 60.1106 73.7596 59.9828 73.7394C59.8549 73.6971 59.7048 73.6749 59.5566 73.6749C59.3212 73.6749 59.1305 73.7172 58.9377 73.8241C58.7449 73.9087 58.5968 74.0578 58.4892 74.2271C58.3614 74.3762 58.2761 74.5656 58.2112 74.7792C58.1462 74.9908 58.126 75.2024 58.126 75.4362C58.126 75.6901 58.1462 75.9238 58.2112 76.1354C58.2761 76.347 58.3816 76.5384 58.4892 76.6876C58.617 76.8568 58.7672 76.9636 58.958 77.0483C59.1284 77.1329 59.3415 77.1752 59.5566 77.1752C59.792 77.1752 60.0051 77.1752 60.1979 77.1329C60.3907 77.0906 60.5814 77.0483 60.7742 76.9636V75.3958H59.6175V75.3918ZM63.3088 75.942C63.3088 76.0488 63.2865 76.1757 63.2662 76.2805C63.2236 76.4074 63.181 76.4921 63.1161 76.5989C63.0511 76.7057 62.9659 76.7682 62.8604 76.8326C62.7528 76.8971 62.6473 76.9173 62.5194 76.9173C62.3693 76.9173 62.2637 76.8951 62.1562 76.8326C62.0507 76.7702 61.9634 76.7057 61.9005 76.5989C61.8376 76.4941 61.7929 76.4074 61.7726 76.2805C61.73 76.1737 61.7097 76.0468 61.7097 75.942C61.7097 75.815 61.7321 75.7082 61.7726 75.6034C61.7929 75.4765 61.8376 75.3697 61.9005 75.285C61.9654 75.1782 62.0507 75.0936 62.1562 75.0513C62.2637 74.9868 62.3693 74.9445 62.5194 74.9445C62.6473 74.9445 62.7548 74.9868 62.8604 75.0513C62.9679 75.0936 63.0531 75.1782 63.1161 75.285C63.181 75.3697 63.2236 75.4765 63.2662 75.6034C63.2885 75.7102 63.3088 75.815 63.3088 75.942ZM62.5194 74.6926C62.3266 74.6926 62.1785 74.7349 62.0283 74.7994C61.8782 74.8639 61.7726 74.9686 61.6874 75.0754C61.6022 75.2024 61.517 75.3294 61.4743 75.4785C61.4317 75.6276 61.4114 75.7747 61.4114 75.944C61.4114 76.0931 61.4317 76.2624 61.4743 76.3893C61.517 76.5364 61.6022 76.6855 61.6874 76.7923C61.7726 76.9193 61.8802 77.0039 62.0283 77.0684C62.1785 77.1531 62.3266 77.1752 62.5194 77.1752C62.6899 77.1752 62.8604 77.1531 62.9882 77.0684C63.1384 77.006 63.2439 76.9213 63.3291 76.7923C63.4367 76.6855 63.4996 76.5384 63.5422 76.3893C63.5848 76.2624 63.6071 76.0931 63.6071 75.944C63.6071 75.7747 63.5848 75.6256 63.5422 75.4785C63.4996 75.3294 63.4367 75.2024 63.3291 75.0754C63.2439 74.9686 63.1363 74.8639 62.9882 74.7994C62.8604 74.7349 62.6899 74.6926 62.5194 74.6926ZM66.1702 76.0064C66.1702 75.815 66.1479 75.6457 66.1276 75.4765C66.085 75.3273 66.02 75.1802 65.9348 75.0734C65.8496 74.9465 65.742 74.8618 65.5939 74.7974C65.466 74.7329 65.2956 74.6905 65.1028 74.6905C64.9323 74.6905 64.7821 74.7329 64.6543 74.7974C64.5264 74.8618 64.3986 74.9465 64.3134 75.0734C64.2281 75.1802 64.1632 75.3273 64.1206 75.4765C64.078 75.6256 64.0556 75.7727 64.0556 75.942C64.0556 76.0911 64.078 76.2603 64.1206 76.4074C64.1632 76.5566 64.2281 76.6835 64.3134 76.8105C64.3986 76.9173 64.5061 77.0019 64.634 77.0865C64.7618 77.151 64.912 77.1712 65.0825 77.1712C65.6588 77.1712 65.9997 76.8951 66.1499 76.3651H65.8516C65.8293 76.5143 65.744 76.6614 65.6162 76.7682C65.4883 76.875 65.3382 76.9173 65.1677 76.9173C64.912 76.9173 64.6989 76.8326 64.5691 76.6634C64.4412 76.4941 64.356 76.2825 64.356 76.0064H66.1702ZM64.356 75.7525C64.3763 75.5188 64.4615 75.3294 64.5914 75.1802C64.7192 75.0311 64.8897 74.9465 65.1028 74.9465C65.3382 74.9465 65.5289 75.0311 65.6588 75.1802C65.7866 75.3072 65.8516 75.4986 65.8719 75.7525H64.356ZM66.7242 75.3495C66.7242 75.4563 66.7465 75.5409 66.7871 75.6034C66.8297 75.688 66.8723 75.7525 66.9373 75.7948C67.0225 75.8372 67.0874 75.8795 67.1727 75.9016C67.2356 75.9218 67.3431 75.944 67.471 75.9863C67.4913 75.9863 67.5136 75.9863 67.5562 76.0064C67.6638 76.0286 67.749 76.0487 67.8119 76.0709C67.8971 76.0931 67.9621 76.1132 68.025 76.1354C68.0899 76.1777 68.1325 76.22 68.1528 76.2624C68.1954 76.3248 68.2157 76.3893 68.2157 76.4538C68.2157 76.6009 68.1528 76.7299 68.023 76.8145C67.9154 76.879 67.7673 76.9213 67.5968 76.9213C67.4263 76.9213 67.2559 76.8991 67.1483 76.8145C67.0205 76.752 66.9555 76.6452 66.9352 76.476H66.6369C66.6369 76.6029 66.6795 76.7097 66.7222 76.7944C66.7648 76.879 66.85 76.9636 66.9352 77.0281C67.0205 77.0704 67.1057 77.1127 67.2133 77.1349C67.3188 77.1772 67.4263 77.1772 67.5339 77.1772C67.6617 77.1772 67.7693 77.1772 67.8971 77.1349C68.0047 77.1127 68.1102 77.0503 68.2178 76.9858C68.303 76.9233 68.3882 76.8588 68.4309 76.752C68.4938 76.6674 68.5161 76.5405 68.5161 76.4135C68.5161 76.2865 68.4735 76.1797 68.4085 76.0749C68.3436 75.9903 68.2381 75.9057 68.1102 75.8634C68.0027 75.8211 67.8322 75.7787 67.5988 75.7162C67.3858 75.6739 67.2356 75.6316 67.1503 75.5671C67.0651 75.5248 67.0225 75.4402 67.0225 75.3334C67.0225 75.2064 67.0854 75.1218 67.1727 75.0573C67.2802 74.9928 67.4081 74.9505 67.5562 74.9505C67.7267 74.9505 67.8545 74.9928 67.9621 75.0573C68.0676 75.1198 68.1325 75.2064 68.1325 75.3535H68.4532C68.4308 75.1198 68.3456 74.9505 68.1975 74.8457C68.027 74.7611 67.8342 74.6966 67.5785 74.6966C67.471 74.6966 67.3655 74.7188 67.2802 74.7389C67.1727 74.7591 67.0672 74.8034 67.0022 74.8457C66.917 74.9082 66.852 74.9727 66.7891 75.0573C66.7465 75.1379 66.7242 75.2427 66.7242 75.3495ZM70.8437 77.1087V75.4986H72.7006V77.1087H72.9989V73.7394H72.7006V75.2225H70.8437V73.7394H70.5454V77.1087H70.8437ZM75.8399 76.0064C75.8399 75.815 75.8176 75.6457 75.775 75.4765C75.7324 75.3273 75.6674 75.1802 75.5822 75.0734C75.497 74.9465 75.3894 74.8618 75.2616 74.7974C75.1114 74.7329 74.9409 74.6905 74.7502 74.6905C74.5797 74.6905 74.4295 74.7329 74.3017 74.7974C74.1738 74.8618 74.0663 74.9465 73.9811 75.0734C73.8735 75.1802 73.8106 75.3273 73.768 75.4765C73.7254 75.6256 73.703 75.7727 73.703 75.942C73.703 76.0911 73.7233 76.2603 73.768 76.4074C73.8106 76.5566 73.8735 76.6835 73.9608 76.8105C74.046 76.9173 74.1535 77.0019 74.2814 77.0865C74.4092 77.151 74.5797 77.1712 74.7299 77.1712C75.3062 77.1712 75.6694 76.8951 75.7973 76.3651H75.5193C75.4767 76.5143 75.3914 76.6614 75.2636 76.7682C75.1357 76.875 74.9856 76.9173 74.8374 76.9173C74.5594 76.9173 74.3463 76.8326 74.2185 76.6634C74.0906 76.4941 74.0257 76.2825 74.0054 76.0064H75.8399ZM74.0237 75.7525C74.044 75.5188 74.1089 75.3294 74.2367 75.1802C74.3646 75.0311 74.5351 74.9465 74.7705 74.9465C75.0059 74.9465 75.1763 75.0311 75.3042 75.1802C75.432 75.3072 75.5172 75.4986 75.5172 75.7525H74.0237ZM76.7348 75.7102C76.7348 75.4765 76.7998 75.287 76.9053 75.1581C77.0332 75.0311 77.1833 74.9465 77.3964 74.9465C77.4167 74.9465 77.439 74.9686 77.5019 74.9686C77.5243 74.9686 77.5445 74.9686 77.5669 74.9686V74.6926C77.5445 74.6926 77.5243 74.6926 77.4816 74.6926C77.4187 74.6926 77.3538 74.6926 77.2686 74.6926C77.161 74.6926 77.0555 74.7349 76.9479 74.8195C76.8627 74.9042 76.7978 74.9888 76.7551 75.1157H76.7348L76.7125 74.7772H76.4345C76.4345 74.8195 76.4345 74.8397 76.4345 74.8618C76.4568 75.0311 76.4568 75.1802 76.4568 75.285V77.1067H76.7348V75.7102ZM80 76.0064C80 75.815 79.9797 75.6457 79.9574 75.4765C79.9148 75.3273 79.8499 75.1802 79.7646 75.0734C79.6794 74.9465 79.5718 74.8618 79.4237 74.7974C79.2958 74.7329 79.1254 74.6905 78.9326 74.6905C78.7621 74.6905 78.612 74.7329 78.4841 74.7974C78.334 74.8618 78.2284 74.9465 78.1432 75.0734C78.058 75.1802 77.993 75.3273 77.9504 75.4765C77.9078 75.6256 77.8875 75.7727 77.8875 75.942C77.8875 76.0911 77.9078 76.2603 77.9504 76.4074C77.993 76.5566 78.058 76.6835 78.1432 76.8105C78.2284 76.9173 78.336 77.0019 78.4638 77.0865C78.5917 77.151 78.7418 77.1712 78.9123 77.1712C79.4886 77.1712 79.8296 76.8951 79.9797 76.3651H79.6814C79.6388 76.5143 79.5759 76.6614 79.446 76.7682C79.3182 76.875 79.168 76.9173 78.9975 76.9173C78.7195 76.9173 78.5288 76.8326 78.3989 76.6634C78.2487 76.4941 78.1858 76.2825 78.1858 76.0064H80ZM78.1878 75.7525C78.2102 75.5188 78.2934 75.3294 78.4232 75.1802C78.5511 75.0311 78.7216 74.9465 78.9346 74.9465C79.17 74.9465 79.3608 75.0311 79.4886 75.1802C79.6165 75.3072 79.6814 75.4986 79.7017 75.7525H78.1878Z" fill="#050C14"/>
<path d="M48.4114 16.7015V33.4029H31.5923H23.1605C18.5296 33.4029 14.751 29.6729 14.751 25.0522C14.751 20.4517 18.5296 16.7015 23.1605 16.7015H31.5923V8.35075C31.5923 3.73003 35.3486 0 40.0019 0C44.6551 0 48.4114 3.73003 48.4114 8.35075V16.7015Z" fill="#FF1F3C"/>
<path d="M48.4113 16.7017H56.8208C61.4741 16.7017 65.2527 20.4539 65.2527 25.0524C65.2527 29.6731 61.4741 33.4031 56.8208 33.4031H48.4113V41.776C48.4113 46.3746 44.655 50.1268 40.0018 50.1268C35.3486 50.1268 31.5923 46.3746 31.5923 41.776V33.4031C31.5923 24.2262 39.1678 16.7017 48.4113 16.7017Z" fill="#050C14"/>
</svg>
