<svg width="50" height="50" viewBox="0 0 50 50" fill="none" xmlns="http://www.w3.org/2000/svg">
<g clip-path="url(#clip0_2133_1518)">
<path d="M8.69704 17.1442C5.63638 18.1663 3.62573 21.3729 3.31753 25.7196C3.30198 25.9366 3.37332 26.1508 3.51584 26.3152C3.65836 26.4795 3.86037 26.5805 4.07736 26.5958H4.13638C4.56729 26.5969 4.92546 26.2642 4.95605 25.8343C5.21507 22.1704 6.80933 19.5024 9.21835 18.6975C9.64841 18.554 9.8807 18.089 9.7372 17.6589C9.5937 17.2289 9.12873 16.9966 8.69868 17.1401L8.69704 17.1442Z" fill="#FF1F3C"/>
<path d="M32.8592 16.3532H32.8641C33.0369 16.4059 33.2163 16.4335 33.3969 16.4352C34.5666 16.4352 35.774 15.3696 36.3944 13.6959C36.7065 12.8926 36.8039 12.022 36.6772 11.1696C36.5867 10.4144 36.1286 9.75279 35.4535 9.40241C34.5485 8.92141 33.6027 8.52149 32.6272 8.20733C25.1805 5.76471 19.8108 9.05733 16.8076 11.9106C17.1075 9.84234 17.2431 7.75357 17.2133 5.66389V2.92618C17.2133 1.27372 14.7395 0.40979 12.2953 0.40979C9.851 0.40979 7.37723 1.27454 7.37723 2.927C7.37723 3.51471 7.38625 4.06307 7.39363 4.56635C7.40756 5.44422 7.41903 6.20569 7.37969 6.79749C7.33051 7.52864 7.0674 9.9852 5.71576 10.9073C3.03964 12.7147 1.55442 15.8314 1.83625 19.0483C0.781963 21.0418 0.17181 23.24 0.0477237 25.4918C-0.422614 34.4338 4.55689 42.7736 12.6518 46.6016C16.5862 48.5688 19.8805 49.5458 22.61 49.5458C24.0064 49.5712 25.3886 49.2621 26.6412 48.6442C31.0272 46.4106 32.3608 40.4172 33.3518 34.4639C33.5021 33.5612 33.6039 32.6512 33.6567 31.7377C33.6825 31.285 33.3365 30.8971 32.8838 30.8713C32.4311 30.8455 32.0432 31.1915 32.0174 31.6442C31.968 32.4992 31.8728 33.351 31.7322 34.1959C30.8108 39.7303 29.601 45.2918 25.8953 47.1786C23.0895 48.6081 18.9969 47.9368 13.3822 45.1295C5.88232 41.5972 1.2603 33.8833 1.68297 25.604C1.79182 23.6121 2.32444 21.6663 3.24526 19.8967C3.34051 19.8005 3.40987 19.6818 3.4469 19.5516C4.48726 17.6968 6.17088 16.2873 8.17969 15.5893C9.47144 15.1299 10.846 14.95 12.2125 15.0614C13.1053 15.1462 13.976 15.389 14.7838 15.7786C19.0371 17.8418 20.6977 23.4721 20.7141 23.5295C20.8386 23.9647 21.2924 24.2167 21.7276 24.0922C22.1629 23.9677 22.4148 23.5139 22.2903 23.0786C22.2215 22.8327 20.6346 17.4229 16.3715 14.7852C18.4748 12.2065 23.8985 7.07126 32.1182 9.76799C32.3748 9.84995 32.6305 9.95651 32.8871 10.0541C32.3448 10.5891 31.9295 11.2389 31.6715 11.9557C31.3895 12.6878 31.2826 13.4757 31.3592 14.2565C27.633 13.4508 25.2682 14.1327 23.892 14.9245C23.3772 15.2002 22.9205 15.5725 22.5469 16.0213C22.3659 16.2696 22.339 16.5982 22.4772 16.8727C22.6153 17.1471 22.8954 17.3212 23.2026 17.3237C23.4559 17.3239 23.6953 17.2083 23.8526 17.0098C24.0567 16.7934 24.2892 16.6056 24.5436 16.4516C25.9133 16.3803 27.3617 17.2155 28.642 18.8434C28.8233 19.0734 29.1135 19.1893 29.4033 19.1473C29.6932 19.1053 29.9386 18.9119 30.0472 18.6399C30.1557 18.3679 30.111 18.0587 29.9297 17.8286C29.2398 16.9231 28.3832 16.1577 27.4059 15.5737C29.257 15.4788 31.1089 15.7435 32.8592 16.3532ZM12.2953 2.04913C14.274 2.04913 15.41 2.66225 15.5658 2.927C15.4141 3.19668 14.2756 3.80569 12.2953 3.80569C10.2633 3.80569 9.11985 3.15897 9.01658 2.95651V2.95077C9.12149 2.69586 10.2649 2.04913 12.2953 2.04913ZM7.66084 14.0336C6.15879 14.5383 4.79953 15.3955 3.6969 16.5336C4.08723 14.7829 5.14229 13.2523 6.63953 12.2647C8.54936 10.9622 8.93461 8.08438 9.01658 6.90979C9.05592 6.32536 9.05018 5.63602 9.03871 4.85405C10.0754 5.26124 11.1816 5.46199 12.2953 5.44504C13.4169 5.46258 14.531 5.25898 15.574 4.84586V5.66553C15.6708 8.45833 15.3672 11.2506 14.6723 13.9573C13.9332 13.6837 13.1618 13.5071 12.3772 13.4319C10.7802 13.2963 9.17264 13.5014 7.66084 14.0336ZM34.8576 13.1319C34.4092 14.3467 33.5994 14.8959 33.3117 14.7852C33.024 14.6745 32.7617 13.7377 33.2092 12.5237C33.3946 11.9838 33.7145 11.5 34.1387 11.118C34.2873 10.978 34.4758 10.8878 34.6781 10.8598C34.7045 10.859 34.731 10.8632 34.7559 10.8721C34.8887 10.9213 35.0092 11.1516 35.0641 11.4598C35.1382 12.0254 35.0671 12.6014 34.8576 13.1319Z" fill="#FF1F3C"/>
<path d="M46.9517 11.8688C46.1632 10.7655 44.6304 10.5088 43.5254 11.295L26.5222 23.2991C25.7957 23.8219 25.4123 24.6993 25.5222 25.5876L23.3377 27.145C22.6185 26.7053 21.7061 26.7375 21.0197 27.2269L7.9902 36.536C7.33553 37.0057 7.18382 37.9163 7.65086 38.5728C8.63378 39.9185 10.2333 40.6722 11.8968 40.5737H21.3115C21.7642 40.5737 22.1312 40.2067 22.1312 39.754C22.1312 39.3013 21.7642 38.9343 21.3115 38.9343H17.7869C19.2764 38.2036 20.7021 37.3495 22.0492 36.381L25.6976 33.7753C26.3839 33.2852 26.7103 32.4319 26.5263 31.6089L28.7099 30.0515C28.917 30.1551 29.1378 30.2288 29.3656 30.2704C29.501 30.2932 29.6381 30.3047 29.7754 30.3048C30.2848 30.3049 30.7813 30.1453 31.1951 29.8483L48.1968 17.845C48.7278 17.4662 49.0866 16.892 49.1942 16.2487C49.3018 15.6053 49.1494 14.9456 48.7705 14.4147L46.9517 11.8688ZM25.7066 30.1778L24.4263 28.3851L26.2197 27.104L27.5 28.8974L25.7066 30.1778ZM24.7427 32.4417L21.0943 35.0466C18.922 36.6809 16.4718 37.9086 13.8623 38.6704C11.6254 39.222 10.0205 38.9163 9.09348 37.763L21.9722 28.5638C22.1793 28.4157 22.4673 28.4634 22.6156 28.6704L24.8492 31.7974C24.9971 32.0048 24.9491 32.2928 24.7418 32.4409L24.7427 32.4417ZM47.2468 16.5073L30.2459 28.5106C29.8776 28.773 29.3663 28.6876 29.1033 28.3196L27.2861 25.7786C27.0244 25.4118 27.1079 24.9025 27.473 24.6384L44.4746 12.631C44.6133 12.5317 44.7795 12.4782 44.95 12.4778C44.9956 12.478 45.0411 12.4818 45.0861 12.4892C45.3 12.5233 45.4915 12.6413 45.6181 12.8171L47.4353 15.3581C47.5637 15.5351 47.616 15.7562 47.5806 15.972C47.5452 16.1878 47.425 16.3805 47.2468 16.5073Z" fill="#FF1F3C"/>
<path d="M27.0492 40.5737C27.5019 40.5737 27.8689 40.2067 27.8689 39.754C27.8689 39.3013 27.5019 38.9343 27.0492 38.9343H24.5902C24.1375 38.9343 23.7705 39.3013 23.7705 39.754C23.7705 40.2067 24.1375 40.5737 24.5902 40.5737H27.0492Z" fill="#FF1F3C"/>
</g>
<defs>
<clipPath id="clip0_2133_1518">
<rect width="50" height="50" fill="white"/>
</clipPath>
</defs>
</svg>
