<svg width="60" height="60" viewBox="0 0 60 60" fill="none" xmlns="http://www.w3.org/2000/svg">
<g clip-path="url(#clip0_2141_1635)">
<path d="M32.2349 32.1149C31.3903 31.6871 30.3247 31.648 29.3547 31.6482C28.1802 31.6484 27.2411 31.7288 26.4751 32.1178C25.4736 32.6262 24.9661 33.5634 24.9668 34.9028C24.9681 37.5 26.8775 39.708 29.3566 39.708C33.5796 39.7081 35.2321 33.633 32.2349 32.1149ZM29.3579 37.9499C26.8597 37.9505 26.0659 34.2975 27.2711 33.6856C27.8056 33.4143 28.7641 33.4065 29.3697 33.4065C30.163 33.4065 30.9614 33.4409 31.4404 33.6835C31.7244 33.8274 31.9874 34.0742 31.9877 34.8995C31.9885 36.5807 30.8089 37.9494 29.3579 37.9499Z" fill="#FF1F3C"/>
<path d="M37.0623 30.6377C36.5727 30.6372 36.1811 31.0327 36.1802 31.5152V32.9217C36.1792 33.4072 36.5707 33.802 37.0562 33.8025C37.5458 33.803 37.9375 33.4075 37.9384 32.925V31.5184C37.9393 31.0329 37.5478 30.6382 37.0623 30.6377Z" fill="#FF1F3C"/>
<path d="M22.337 30.2637C19.8119 30.2609 19.0196 33.6668 20.6833 33.6666C21.1678 33.6666 21.5612 33.2743 21.5624 32.7895C21.5633 32.3659 21.9083 32.022 22.3315 32.022C22.7563 32.022 23.1017 32.3681 23.1008 32.7929C23.0998 33.2793 23.4937 33.6739 23.9799 33.6739C25.6303 33.6738 24.8606 30.2665 22.337 30.2637Z" fill="#FF1F3C"/>
<path d="M38.8259 24.7047H44.1213C45.5793 24.7047 46.7655 23.5185 46.7655 22.0605C46.7655 20.6025 45.5793 19.4163 44.1213 19.4163H38.8259C37.3679 19.4163 36.1816 20.6025 36.1816 22.0605C36.1816 23.5185 37.3679 24.7047 38.8259 24.7047ZM38.8259 21.1745H44.1213C44.6098 21.1745 45.0073 21.572 45.0073 22.0605C45.0073 22.5491 44.6098 22.9465 44.1213 22.9465H38.8259C38.3373 22.9465 37.9399 22.5491 37.9399 22.0605C37.9399 21.572 38.3373 21.1745 38.8259 21.1745Z" fill="#FF1F3C"/>
<path d="M49.7936 19.6242C48.8466 17.4278 46.6608 15.886 44.1211 15.886H26.47C24.2397 15.886 22.2818 17.0749 21.1965 18.8521C19.5976 17.9853 17.6506 18.0462 16.0736 19.0833C12.0607 21.7229 9.67986 26.1633 9.70495 30.9615C9.7455 38.7042 16.141 45.0035 23.9615 45.0035H34.4129C43.8304 45.0035 50.6389 35.9241 47.9504 26.8986C48.6035 26.3806 49.1507 25.7347 49.5511 24.9974C52.072 25.8122 53.8395 28.1877 53.8395 30.886C53.8395 44.031 43.1453 54.7253 30.0003 54.7253C16.8551 54.7253 6.16085 44.031 6.16085 30.8859C6.16085 18.7778 15.4759 8.4616 27.4577 7.18209C28.2668 8.17958 29.5013 8.81863 30.8827 8.81863H39.7082C42.1396 8.81863 44.1176 6.84064 44.1176 4.40926C44.1176 1.97788 42.1397 0 39.7083 0H30.8827C29.383 0 28.0565 0.753103 27.2597 1.9004C13.9057 3.15061 3.27057 13.3655 1.23889 26.3372C1.16376 26.8168 1.49172 27.2666 1.97137 27.3417C2.45183 27.4168 2.90088 27.0882 2.97589 26.6092C4.87325 14.4952 14.4633 5.2661 26.523 3.74911C26.4347 4.33494 26.4642 4.93579 26.613 5.51166C14.0492 7.18044 4.40275 17.9589 4.40263 30.8859C4.40263 45.0005 15.8857 56.4836 30.0003 56.4836C44.1148 56.4836 55.5977 45.0005 55.5977 30.886C55.5977 27.4459 53.3602 24.4139 50.1598 23.3468C50.2922 22.7241 50.3218 22.136 50.2722 21.5424C54.3872 22.7012 57.356 26.5154 57.356 30.886C57.356 45.9701 45.0844 58.2418 30.0004 58.2418C14.6356 58.2418 2.18247 45.5062 2.65766 30.0304C2.67254 29.5451 2.29124 29.1395 1.80586 29.1246C1.31684 29.1094 0.915029 29.4912 0.900142 29.9764C0.39612 46.4523 13.6531 60 30.0004 60C46.1036 60 59.1143 46.9892 59.1143 30.886C59.1141 25.3923 55.1427 20.641 49.7936 19.6242ZM42.3595 4.40938C42.3595 5.87116 41.1702 7.06053 39.7083 7.06053H34.4095V1.75822H39.7083C41.1701 1.75822 42.3595 2.94748 42.3595 4.40938ZM30.8827 1.75822H32.6512V7.06042H30.8827C29.4209 7.06042 28.2315 5.87116 28.2315 4.40926C28.2315 2.94736 29.4209 1.75822 30.8827 1.75822ZM34.4129 43.2452H23.9615C17.1054 43.2452 11.4987 37.7307 11.4632 30.9524C11.4411 26.7515 13.5259 22.8636 17.0398 20.5523C18.2458 19.7589 19.5627 19.9232 20.5005 20.4829C19.462 24.409 22.4426 28.2349 26.4699 28.2349H28.235C28.7205 28.2349 29.1141 27.8413 29.1141 27.3558C29.1141 26.8703 28.7205 26.4767 28.235 26.4767H26.4699C24.0348 26.4767 22.0537 24.4956 22.0537 22.0605C22.0537 19.6253 24.0348 17.6442 26.4699 17.6442H44.121C46.5561 17.6442 48.5372 19.6253 48.5372 22.0605C48.5372 24.4956 46.5561 26.4767 44.121 26.4767H31.7653C31.2798 26.4767 30.8862 26.8703 30.8862 27.3558C30.8862 27.8413 31.2798 28.2349 31.7653 28.2349H44.1211C44.9181 28.2349 45.6795 28.0814 46.3795 27.8053C48.402 35.5716 42.525 43.2452 34.4129 43.2452Z" fill="#FF1F3C"/>
<path d="M31.7653 24.7047C33.2234 24.7047 34.4096 23.5185 34.4096 22.0605C34.4096 20.6025 33.2234 19.4163 31.7653 19.4163H30.0002C28.5422 19.4163 27.356 20.6025 27.356 22.0605C27.356 23.5185 28.5422 24.7047 30.0002 24.7047H31.7653ZM29.1143 22.0605C29.1143 21.572 29.5118 21.1745 30.0003 21.1745H31.7653C32.2539 21.1745 32.6514 21.572 32.6514 22.0605C32.6514 22.5491 32.2539 22.9465 31.7653 22.9465H30.0002C29.5116 22.9465 29.1143 22.5491 29.1143 22.0605Z" fill="#FF1F3C"/>
</g>
<defs>
<clipPath id="clip0_2141_1635">
<rect width="60" height="60" fill="white"/>
</clipPath>
</defs>
</svg>
