<svg width="60" height="60" viewBox="0 0 60 60" fill="none" xmlns="http://www.w3.org/2000/svg">
<path d="M51.8254 4.98853H8.16088C5.22787 4.98853 2.841 7.38589 2.841 10.3322C2.83999 13.3568 2.84469 -0.624569 2.83105 39.9126C2.83105 42.855 5.22455 45.2485 8.16751 45.2485H24.403C24.9075 46.5172 25.1522 49.0604 20.2661 52.7474H18.3208C17.6951 52.7474 17.1887 53.2543 17.1887 53.8795C17.1887 54.5047 17.6951 55.0116 18.3208 55.0116H41.6765C42.3022 55.0116 42.8086 54.5047 42.8086 53.8795C42.8086 53.2543 42.3022 52.7474 41.6765 52.7474H39.7312C34.8465 49.0615 35.0908 46.5178 35.5946 45.2485H51.8309C54.7829 45.2485 57.1685 42.841 57.1685 39.9132V10.3322C57.1685 7.38589 54.7717 4.98853 51.8254 4.98853ZM8.16088 7.25268H51.8254C53.5235 7.25268 54.9043 8.63405 54.9043 10.3322V35.8415H5.10516V10.3322C5.10516 8.63405 6.47603 7.25268 8.16088 7.25268ZM54.9021 39.9126C54.9021 41.6151 53.5156 42.981 51.8254 42.981H8.16088C6.47603 42.981 5.10516 41.6046 5.10516 39.9132V38.1056H54.9021V39.9126ZM36.2306 52.7474H23.7667C26.3548 50.2273 27.3586 47.7172 26.7638 45.2485H33.2346C32.6398 47.7177 33.6425 50.2279 36.2306 52.7474Z" fill="#FF1F3C"/>
<path d="M24.9883 41.677C25.6141 41.677 26.1204 41.1701 26.1204 40.5449C26.1204 39.9197 25.6141 39.4128 24.9883 39.4128H24.9762C24.3504 39.4128 23.8496 39.9197 23.8496 40.5449C23.8496 41.1701 24.3626 41.677 24.9883 41.677Z" fill="#FF1F3C"/>
<path d="M30.0054 41.677C30.6311 41.677 31.1375 41.1701 31.1375 40.5449C31.1375 39.9197 30.6311 39.4128 30.0054 39.4128H29.9932C29.3675 39.4128 28.8667 39.9197 28.8667 40.5449C28.8667 41.1701 29.3797 41.677 30.0054 41.677Z" fill="#FF1F3C"/>
<path d="M35.0209 41.677C35.6466 41.677 36.153 41.1701 36.153 40.5449C36.153 39.9197 35.6466 39.4128 35.0209 39.4128H35.0098C34.3841 39.4128 33.8833 39.9197 33.8833 40.5449C33.8833 41.1701 34.3952 41.677 35.0209 41.677Z" fill="#FF1F3C"/>
<path d="M10.0935 28.2558H10.6032L11.3804 30.3862C11.5384 30.8201 11.9442 31.1142 12.4052 31.1302C12.8563 31.1523 13.2907 30.8803 13.4787 30.4586L15.4521 26.0193L17.3105 32.5586C17.4481 33.0437 17.8925 33.3811 18.3994 33.3811C18.8162 33.3811 19.2021 33.1517 19.4 32.7786L21.7935 28.2558H37.7133L38.5656 31.0373C38.7038 31.4884 39.1074 31.8068 39.5783 31.8355C40.0471 31.8731 40.4893 31.5989 40.6816 31.1678L43.0033 25.9784L44.9247 32.5657C45.0585 33.0229 45.4631 33.3474 45.9374 33.3789C46.426 33.4126 46.8561 33.1395 47.0474 32.705L49.0042 28.2558H49.9173C50.5431 28.2558 51.0494 27.7489 51.0494 27.1237C51.0494 26.4985 50.5431 25.9916 49.9173 25.9916H48.2657C47.8168 25.9916 47.41 26.257 47.2298 26.6677L46.227 28.9462L44.3145 22.3881C44.1818 21.9321 43.7783 21.6082 43.3051 21.5755C42.8087 21.5429 42.3875 21.8094 42.194 22.2427L39.847 27.4902L39.6325 26.792C39.4866 26.3161 39.0477 25.9916 38.5502 25.9916H33.4713C36.3443 23.6771 40.2848 19.7962 40.2848 15.9002C40.2848 12.4891 37.5098 9.71362 34.0981 9.71362C32.5714 9.71362 31.1165 10.2791 30.0054 11.2691C28.8944 10.2791 27.4384 9.71362 25.9116 9.71362C22.4999 9.71362 19.725 12.4891 19.725 15.9002C19.725 19.7962 23.6658 23.6771 26.5393 25.9916H21.1113C20.6923 25.9916 20.3065 26.2238 20.1108 26.5942L18.7178 29.227L16.7765 22.3953C16.6461 21.9371 16.2425 21.6093 15.7671 21.5755C15.2951 21.5418 14.8473 21.8094 14.6528 22.2449L12.5478 26.9789L12.4594 26.7362C12.2968 26.289 11.8712 25.9916 11.3958 25.9916H10.0935C9.46776 25.9916 8.96143 26.4985 8.96143 27.1237C8.96143 27.7489 9.46776 28.2558 10.0935 28.2558ZM21.9891 15.9002C21.9891 13.7372 23.7492 11.9778 25.9116 11.9778C27.1763 11.9778 28.3604 12.588 29.0801 13.6107C29.5024 14.2132 30.5084 14.2132 30.9308 13.6107C31.6505 12.588 32.8345 11.9778 34.0981 11.9778C36.2606 11.9778 38.0206 13.7372 38.0206 15.9002C38.0206 19.4617 32.7085 23.8839 30.0054 25.7606C27.3024 23.8845 21.9891 19.4617 21.9891 15.9002Z" fill="#FF1F3C"/>
</svg>
