<svg width="60" height="60" viewBox="0 0 60 60" fill="none" xmlns="http://www.w3.org/2000/svg">
<path d="M58.7259 39.236C58.312 38.0141 57.3234 37.1266 55.9422 36.7373C54.4562 36.3183 52.5236 36.4518 50.1976 37.1341L39.6119 40.2396C39.0698 39.1321 38.0706 38.2554 36.7886 37.9119L29.2666 35.8965C23.7773 32.0497 20.8356 33.1548 16.5099 35.2703C14.4353 36.2845 12.3811 37.2622 10.4404 38.1795L10.0328 37.2006C9.49193 35.9017 7.99486 35.2841 6.69502 35.8235L2.63189 37.5105C1.99873 37.7735 1.50701 38.2649 1.24744 38.8943C0.987751 39.5237 0.98986 40.2189 1.25342 40.8518L8.13373 57.3731C8.54189 58.3532 9.49439 58.9454 10.4958 58.9454C10.8215 58.9454 11.1525 58.8827 11.4716 58.7502L15.5347 57.0629C16.1678 56.8 16.6596 56.3086 16.9192 55.6792C17.1787 55.0498 17.1766 54.3546 16.9131 53.7218L16.4522 52.6151L19.1004 51.3274C20.068 50.8571 21.0405 50.7744 22.0729 51.0742L30.5243 53.5281C31.1467 53.7088 31.7897 53.7861 32.4422 53.7861C34.6884 53.786 37.044 52.8695 39.024 52.0989C39.1984 52.031 39.3695 51.9645 39.5369 51.8999L55.3983 45.7876C57.9662 44.7982 59.5522 41.6754 58.7259 39.236ZM15.4025 55.0535C15.3102 55.2776 15.1336 55.4531 14.9055 55.5478L10.8424 57.2351C10.3775 57.4283 9.84174 57.207 9.64826 56.7424L2.76795 40.2211C2.67302 39.993 2.67162 39.744 2.76408 39.52C2.85654 39.2959 3.03302 39.1205 3.26119 39.0257L7.32431 37.3385C7.43857 37.2911 7.55681 37.2687 7.67341 37.2687C8.03166 37.2687 8.37232 37.4805 8.51834 37.8312L15.3986 54.3526C15.4936 54.5805 15.495 54.8295 15.4025 55.0535ZM54.8085 44.2568L38.9471 50.3691C38.7781 50.4342 38.6053 50.5014 38.4292 50.5699C36.105 51.4745 33.2123 52.6001 30.9819 51.9526L22.5306 49.4987C21.1093 49.0862 19.714 49.205 18.3831 49.852L15.8204 51.0981L11.0719 39.6955C13.0383 38.7663 15.1226 37.7747 17.2305 36.7441C21.2738 34.767 23.6085 33.8948 28.4389 37.3202C28.5183 37.3765 28.6071 37.4182 28.7011 37.4435L36.3641 39.4968C37.8425 39.893 38.7232 41.4182 38.327 42.8967C38.1361 43.6091 37.676 44.2063 37.0313 44.5785C36.3868 44.9506 35.6396 45.0505 34.927 44.8595L24.7433 42.1308C24.3065 42.013 23.8558 42.273 23.7386 42.7109C23.6215 43.1484 23.8811 43.5982 24.3187 43.7155L34.5024 46.4442C35.6382 46.7489 36.8276 46.5906 37.8517 45.9993C38.8758 45.4079 39.6074 44.4568 39.9117 43.3212C40.0463 42.8184 40.0883 42.3127 40.048 41.8214L50.6594 38.7084C54.1653 37.6799 56.6 38.0739 57.1719 39.7624C57.7139 41.362 56.5431 43.5884 54.8085 44.2568ZM10.4531 19.1156H18.3464C19.074 20.2453 19.9302 21.4059 20.9189 22.6022C24.1538 26.5165 28.4026 30.3934 33.2174 34.6923C33.5678 35.0053 34.0072 35.1618 34.4468 35.1618C34.8862 35.1618 35.3258 35.0053 35.6762 34.6924C39.3206 31.4384 42.6398 28.4262 45.4414 25.4566H51.5604C51.9354 27.1239 53.4268 28.3734 55.2056 28.3734C57.2662 28.3734 58.9427 26.697 58.9427 24.6363C58.9427 22.5757 57.2662 20.8992 55.2056 20.8992C53.4268 20.8992 51.9354 22.1488 51.5604 23.816H46.9364C47.2922 23.4115 47.6401 23.0071 47.9747 22.6023C51.7969 17.9776 53.6549 13.8812 53.6549 10.0788C53.6549 5.10293 49.1625 1.05469 43.6406 1.05469C39.5831 1.05469 36.9694 2.53055 34.619 6.14871C34.5678 6.22734 34.4972 6.24387 34.4469 6.24387C34.3965 6.24387 34.3258 6.22734 34.2746 6.14871C31.9242 2.53055 29.3106 1.05469 25.2529 1.05469C19.7312 1.05469 15.2388 5.10293 15.2388 10.0788C15.2388 12.415 15.9415 14.8625 17.3688 17.4751H10.4531C10.0001 17.4751 9.63279 17.8424 9.63279 18.2954C9.63279 18.7485 10.0001 19.1156 10.4531 19.1156ZM55.2056 22.5397C56.3615 22.5397 57.3021 23.4802 57.3021 24.6362C57.3021 25.7923 56.3617 26.7327 55.2056 26.7327C54.0495 26.7327 53.1091 25.7923 53.1091 24.6362C53.1091 23.4802 54.0497 22.5397 55.2056 22.5397ZM34.5835 33.4685C34.5043 33.5393 34.3892 33.5393 34.31 33.4685C29.2447 28.946 23.7613 24.0493 20.3244 19.1156H23.1231C23.4565 19.1156 23.7566 18.9138 23.8826 18.6053L25.8974 13.6677L27.8025 24.3844C27.8627 24.7232 28.1278 24.9882 28.4666 25.0485C28.8048 25.1086 29.1456 24.9512 29.3188 24.6539L33.3301 17.7722L35.3291 21.3968C35.4797 21.6696 35.7697 21.8345 36.0828 21.8202C36.394 21.8067 36.6709 21.6182 36.7972 21.3335L38.871 16.6627L40.7558 24.8208C40.8417 25.1929 41.1732 25.4564 41.555 25.4564H43.1728C40.4762 28.2067 37.4624 30.8981 34.5835 33.4685ZM16.8794 10.0787C16.8794 6.00738 20.6358 2.6952 25.2529 2.6952C28.7681 2.6952 30.8404 3.8734 32.8988 7.04227C33.2414 7.56961 33.8201 7.88437 34.4469 7.88437C35.0736 7.88437 35.6523 7.56961 35.9948 7.04227C38.0533 3.8734 40.1256 2.6952 43.6406 2.6952C48.2578 2.6952 52.0142 6.00738 52.0142 10.0787C52.0142 14.6013 48.9221 19.2714 44.735 23.8159H42.2075L39.9167 13.9012C39.8373 13.5574 39.5469 13.303 39.1957 13.2693C38.8434 13.2359 38.5108 13.4304 38.3679 13.753L35.9681 19.1582L34.0684 15.7133C33.9258 15.4547 33.6552 15.2927 33.3597 15.2892C33.06 15.2822 32.7901 15.4412 32.6413 15.6963L29.0266 21.8973L27.0165 10.5895C26.9526 10.23 26.6586 9.9559 26.2956 9.91734C25.9322 9.87867 25.5874 10.085 25.4494 10.4231L22.5717 17.4749H19.2602C17.7773 14.9952 16.8794 12.5156 16.8794 10.0787Z" fill="#FF1F3C"/>
</svg>
